<svg aria-roledescription="sequence" role="graphics-document document" viewBox="-50 -10 2976 2214" style="max-width: 2976px; background-color: rgb(255, 255, 255);" xmlns:xlink="http://www.w3.org/1999/xlink" xmlns="http://www.w3.org/2000/svg" width="100%" id="mermaid-1695726236255"><g><rect class="rect" height="2193" width="570" stroke="rgb(0,0,0, 0.5)" fill="rgb(256, 240, 200)" y="0" x="2304.5"/><text style="text-anchor: middle; font-size: 16px; font-weight: 400;" class="text" alignment-baseline="central" dominant-baseline="central" y="10.5" x="2589.5"><tspan dy="0" x="2589.5">as Leverantör av digital tjänst via API</tspan></text></g><g><rect class="rect" height="2193" width="1563.5" stroke="rgb(0,0,0, 0.5)" fill="rgb(242, 240,233)" y="0" x="585.5"/><text style="text-anchor: middle; font-size: 16px; font-weight: 400;" class="text" alignment-baseline="central" dominant-baseline="central" y="10.5" x="1367.25"><tspan dy="0" x="1367.25">Federationsoperatören Inera</tspan></text></g><g><rect class="rect" height="2193" width="160" stroke="rgb(0,0,0, 0.5)" fill="rgb(230, 240, 199)" y="0" x="223"/><text style="text-anchor: middle; font-size: 16px; font-weight: 400;" class="text" alignment-baseline="central" dominant-baseline="central" y="10.5" x="303"><tspan dy="0" x="303">as Leverantör av API-klient</tspan></text></g><g><rect class="actor" ry="3" rx="3" height="65" width="150" stroke="#666" fill="#eaeaea" y="2118" x="2719.5"/><text style="text-anchor: middle; font-size: 16px; font-weight: 400;" class="actor" alignment-baseline="central" dominant-baseline="central" y="2150.5" x="2794.5"><tspan dy="0" x="2794.5">API</tspan></text></g><g><rect class="actor" ry="3" rx="3" height="65" width="160" stroke="#666" fill="#eaeaea" y="2118" x="2309.5"/><text style="text-anchor: middle; font-size: 16px; font-weight: 400;" class="actor" alignment-baseline="central" dominant-baseline="central" y="2150.5" x="2389.5"><tspan dy="0" x="2389.5">Auktorisationstjänst</tspan></text></g><g><rect class="actor" ry="3" rx="3" height="65" width="265" stroke="#666" fill="#eaeaea" y="2118" x="1879"/><text style="text-anchor: middle; font-size: 16px; font-weight: 400;" class="actor" alignment-baseline="central" dominant-baseline="central" y="2150.5" x="2011.5"><tspan dy="0" x="2011.5">Ineras Federationsmedlemskatalog</tspan></text></g><g><rect class="actor" ry="3" rx="3" height="65" width="150" stroke="#666" fill="#eaeaea" y="2118" x="1210.5"/><text style="text-anchor: middle; font-size: 16px; font-weight: 400;" class="actor" alignment-baseline="central" dominant-baseline="central" y="2150.5" x="1285.5"><tspan dy="0" x="1285.5">Ineras Avtal</tspan></text></g><g><rect class="actor" ry="3" rx="3" height="65" width="206" stroke="#666" fill="#eaeaea" y="2118" x="809.5"/><text style="text-anchor: middle; font-size: 16px; font-weight: 400;" class="actor" alignment-baseline="central" dominant-baseline="central" y="2150.5" x="912.5"><tspan dy="0" x="912.5">Ineras Auktorisationstjänst</tspan></text></g><g><rect class="actor" ry="3" rx="3" height="65" width="169" stroke="#666" fill="#eaeaea" y="2118" x="590.5"/><text style="text-anchor: middle; font-size: 16px; font-weight: 400;" class="actor" alignment-baseline="central" dominant-baseline="central" y="2150.5" x="675"><tspan dy="0" x="675">Ineras Tjänstekatalog</tspan></text></g><g><rect class="actor" ry="3" rx="3" height="65" width="150" stroke="#666" fill="#eaeaea" y="2118" x="228"/><text style="text-anchor: middle; font-size: 16px; font-weight: 400;" class="actor" alignment-baseline="central" dominant-baseline="central" y="2150.5" x="303"><tspan dy="0" x="303">API-klient</tspan></text></g><g><line stroke="#999" stroke-width="0.5px" class="200" y2="2118" x2="2794.5" y1="36" x1="2794.5" id="actor7008"/><g id="root-7008"><rect class="actor" ry="3" rx="3" height="65" width="150" stroke="#666" fill="#eaeaea" y="31" x="2719.5"/><text style="text-anchor: middle; font-size: 16px; font-weight: 400;" class="actor" alignment-baseline="central" dominant-baseline="central" y="63.5" x="2794.5"><tspan dy="0" x="2794.5">API</tspan></text></g></g><g><line stroke="#999" stroke-width="0.5px" class="200" y2="2118" x2="2389.5" y1="36" x1="2389.5" id="actor7006"/><g id="root-7006"><rect class="actor" ry="3" rx="3" height="65" width="160" stroke="#666" fill="#eaeaea" y="31" x="2309.5"/><text style="text-anchor: middle; font-size: 16px; font-weight: 400;" class="actor" alignment-baseline="central" dominant-baseline="central" y="63.5" x="2389.5"><tspan dy="0" x="2389.5">Auktorisationstjänst</tspan></text></g></g><g><line stroke="#999" stroke-width="0.5px" class="200" y2="2118" x2="2011.5" y1="36" x1="2011.5" id="actor7005"/><g id="root-7005"><rect class="actor" ry="3" rx="3" height="65" width="265" stroke="#666" fill="#eaeaea" y="31" x="1879"/><text style="text-anchor: middle; font-size: 16px; font-weight: 400;" class="actor" alignment-baseline="central" dominant-baseline="central" y="63.5" x="2011.5"><tspan dy="0" x="2011.5">Ineras Federationsmedlemskatalog</tspan></text></g></g><g><line stroke="#999" stroke-width="0.5px" class="200" y2="2118" x2="1285.5" y1="36" x1="1285.5" id="actor7003"/><g id="root-7003"><rect class="actor" ry="3" rx="3" height="65" width="150" stroke="#666" fill="#eaeaea" y="31" x="1210.5"/><text style="text-anchor: middle; font-size: 16px; font-weight: 400;" class="actor" alignment-baseline="central" dominant-baseline="central" y="63.5" x="1285.5"><tspan dy="0" x="1285.5">Ineras Avtal</tspan></text></g></g><g><line stroke="#999" stroke-width="0.5px" class="200" y2="2118" x2="912.5" y1="36" x1="912.5" id="actor7002"/><g id="root-7002"><rect class="actor" ry="3" rx="3" height="65" width="206" stroke="#666" fill="#eaeaea" y="31" x="809.5"/><text style="text-anchor: middle; font-size: 16px; font-weight: 400;" class="actor" alignment-baseline="central" dominant-baseline="central" y="63.5" x="912.5"><tspan dy="0" x="912.5">Ineras Auktorisationstjänst</tspan></text></g></g><g><line stroke="#999" stroke-width="0.5px" class="200" y2="2118" x2="675" y1="36" x1="675" id="actor7001"/><g id="root-7001"><rect class="actor" ry="3" rx="3" height="65" width="169" stroke="#666" fill="#eaeaea" y="31" x="590.5"/><text style="text-anchor: middle; font-size: 16px; font-weight: 400;" class="actor" alignment-baseline="central" dominant-baseline="central" y="63.5" x="675"><tspan dy="0" x="675">Ineras Tjänstekatalog</tspan></text></g></g><g><line stroke="#999" stroke-width="0.5px" class="200" y2="2118" x2="303" y1="36" x1="303" id="actor7000"/><g id="root-7000"><rect class="actor" ry="3" rx="3" height="65" width="150" stroke="#666" fill="#eaeaea" y="31" x="228"/><text style="text-anchor: middle; font-size: 16px; font-weight: 400;" class="actor" alignment-baseline="central" dominant-baseline="central" y="63.5" x="303"><tspan dy="0" x="303">API-klient</tspan></text></g></g><style>#mermaid-1695726236255{font-family:"trebuchet ms",verdana,arial,sans-serif;font-size:16px;fill:#333;}#mermaid-1695726236255 .error-icon{fill:#552222;}#mermaid-1695726236255 .error-text{fill:#552222;stroke:#552222;}#mermaid-1695726236255 .edge-thickness-normal{stroke-width:2px;}#mermaid-1695726236255 .edge-thickness-thick{stroke-width:3.5px;}#mermaid-1695726236255 .edge-pattern-solid{stroke-dasharray:0;}#mermaid-1695726236255 .edge-pattern-dashed{stroke-dasharray:3;}#mermaid-1695726236255 .edge-pattern-dotted{stroke-dasharray:2;}#mermaid-1695726236255 .marker{fill:#333333;stroke:#333333;}#mermaid-1695726236255 .marker.cross{stroke:#333333;}#mermaid-1695726236255 svg{font-family:"trebuchet ms",verdana,arial,sans-serif;font-size:16px;}#mermaid-1695726236255 .actor{stroke:hsl(259.6261682243, 59.7765363128%, 87.9019607843%);fill:#ECECFF;}#mermaid-1695726236255 text.actor&gt;tspan{fill:black;stroke:none;}#mermaid-1695726236255 .actor-line{stroke:grey;}#mermaid-1695726236255 .messageLine0{stroke-width:1.5;stroke-dasharray:none;stroke:#333;}#mermaid-1695726236255 .messageLine1{stroke-width:1.5;stroke-dasharray:2,2;stroke:#333;}#mermaid-1695726236255 #arrowhead path{fill:#333;stroke:#333;}#mermaid-1695726236255 .sequenceNumber{fill:white;}#mermaid-1695726236255 #sequencenumber{fill:#333;}#mermaid-1695726236255 #crosshead path{fill:#333;stroke:#333;}#mermaid-1695726236255 .messageText{fill:#333;stroke:none;}#mermaid-1695726236255 .labelBox{stroke:hsl(259.6261682243, 59.7765363128%, 87.9019607843%);fill:#ECECFF;}#mermaid-1695726236255 .labelText,#mermaid-1695726236255 .labelText&gt;tspan{fill:black;stroke:none;}#mermaid-1695726236255 .loopText,#mermaid-1695726236255 .loopText&gt;tspan{fill:black;stroke:none;}#mermaid-1695726236255 .loopLine{stroke-width:2px;stroke-dasharray:2,2;stroke:hsl(259.6261682243, 59.7765363128%, 87.9019607843%);fill:hsl(259.6261682243, 59.7765363128%, 87.9019607843%);}#mermaid-1695726236255 .note{stroke:#aaaa33;fill:#fff5ad;}#mermaid-1695726236255 .noteText,#mermaid-1695726236255 .noteText&gt;tspan{fill:black;stroke:none;}#mermaid-1695726236255 .activation0{fill:#f4f4f4;stroke:#666;}#mermaid-1695726236255 .activation1{fill:#f4f4f4;stroke:#666;}#mermaid-1695726236255 .activation2{fill:#f4f4f4;stroke:#666;}#mermaid-1695726236255 .actorPopupMenu{position:absolute;}#mermaid-1695726236255 .actorPopupMenuPanel{position:absolute;fill:#ECECFF;box-shadow:0px 8px 16px 0px rgba(0,0,0,0.2);filter:drop-shadow(3px 5px 2px rgb(0 0 0 / 0.4));}#mermaid-1695726236255 .actor-man line{stroke:hsl(259.6261682243, 59.7765363128%, 87.9019607843%);fill:#ECECFF;}#mermaid-1695726236255 .actor-man circle,#mermaid-1695726236255 line{stroke:hsl(259.6261682243, 59.7765363128%, 87.9019607843%);fill:#ECECFF;stroke-width:2px;}#mermaid-1695726236255 :root{--mermaid-font-family:"trebuchet ms",verdana,arial,sans-serif;}</style><g/><defs><symbol height="24" width="24" id="computer"><path d="M2 2v13h20v-13h-20zm18 11h-16v-9h16v9zm-10.228 6l.466-1h3.524l.467 1h-4.457zm14.228 3h-24l2-6h2.104l-1.33 4h18.45l-1.297-4h2.073l2 6zm-5-10h-14v-7h14v7z" transform="scale(.5)"/></symbol></defs><defs><symbol clip-rule="evenodd" fill-rule="evenodd" id="database"><path d="M12.258.001l.256.004.255.005.253.008.251.01.249.012.247.015.246.016.242.019.241.02.239.023.236.024.233.027.231.028.229.031.225.032.223.034.22.036.217.038.214.04.211.041.208.043.205.045.201.046.198.048.194.05.191.051.187.053.183.054.18.056.175.057.172.059.168.06.163.061.16.063.155.064.15.066.074.033.073.033.071.034.07.034.069.035.068.035.067.035.066.035.064.036.064.036.062.036.06.036.06.037.058.037.058.037.055.038.055.038.053.038.052.038.051.039.05.039.048.039.047.039.045.04.044.04.043.04.041.04.04.041.039.041.037.041.036.041.034.041.033.042.032.042.03.042.029.042.027.042.026.043.024.043.023.043.021.043.02.043.018.044.017.043.015.044.013.044.012.044.011.045.009.044.007.045.006.045.004.045.002.045.001.045v17l-.001.045-.002.045-.004.045-.006.045-.007.045-.009.044-.011.045-.012.044-.013.044-.015.044-.017.043-.018.044-.02.043-.021.043-.023.043-.024.043-.026.043-.027.042-.029.042-.03.042-.032.042-.033.042-.034.041-.036.041-.037.041-.039.041-.04.041-.041.04-.043.04-.044.04-.045.04-.047.039-.048.039-.05.039-.051.039-.052.038-.053.038-.055.038-.055.038-.058.037-.058.037-.06.037-.06.036-.062.036-.064.036-.064.036-.066.035-.067.035-.068.035-.069.035-.07.034-.071.034-.073.033-.074.033-.15.066-.155.064-.16.063-.163.061-.168.06-.172.059-.175.057-.18.056-.183.054-.187.053-.191.051-.194.05-.198.048-.201.046-.205.045-.208.043-.211.041-.214.04-.217.038-.22.036-.223.034-.225.032-.229.031-.231.028-.233.027-.236.024-.239.023-.241.02-.242.019-.246.016-.247.015-.249.012-.251.01-.253.008-.255.005-.256.004-.258.001-.258-.001-.256-.004-.255-.005-.253-.008-.251-.01-.249-.012-.247-.015-.245-.016-.243-.019-.241-.02-.238-.023-.236-.024-.234-.027-.231-.028-.228-.031-.226-.032-.223-.034-.22-.036-.217-.038-.214-.04-.211-.041-.208-.043-.204-.045-.201-.046-.198-.048-.195-.05-.19-.051-.187-.053-.184-.054-.179-.056-.176-.057-.172-.059-.167-.06-.164-.061-.159-.063-.155-.064-.151-.066-.074-.033-.072-.033-.072-.034-.07-.034-.069-.035-.068-.035-.067-.035-.066-.035-.064-.036-.063-.036-.062-.036-.061-.036-.06-.037-.058-.037-.057-.037-.056-.038-.055-.038-.053-.038-.052-.038-.051-.039-.049-.039-.049-.039-.046-.039-.046-.04-.044-.04-.043-.04-.041-.04-.04-.041-.039-.041-.037-.041-.036-.041-.034-.041-.033-.042-.032-.042-.03-.042-.029-.042-.027-.042-.026-.043-.024-.043-.023-.043-.021-.043-.02-.043-.018-.044-.017-.043-.015-.044-.013-.044-.012-.044-.011-.045-.009-.044-.007-.045-.006-.045-.004-.045-.002-.045-.001-.045v-17l.001-.045.002-.045.004-.045.006-.045.007-.045.009-.044.011-.045.012-.044.013-.044.015-.044.017-.043.018-.044.02-.043.021-.043.023-.043.024-.043.026-.043.027-.042.029-.042.03-.042.032-.042.033-.042.034-.041.036-.041.037-.041.039-.041.04-.041.041-.04.043-.04.044-.04.046-.04.046-.039.049-.039.049-.039.051-.039.052-.038.053-.038.055-.038.056-.038.057-.037.058-.037.06-.037.061-.036.062-.036.063-.036.064-.036.066-.035.067-.035.068-.035.069-.035.07-.034.072-.034.072-.033.074-.033.151-.066.155-.064.159-.063.164-.061.167-.06.172-.059.176-.057.179-.056.184-.054.187-.053.19-.051.195-.05.198-.048.201-.046.204-.045.208-.043.211-.041.214-.04.217-.038.22-.036.223-.034.226-.032.228-.031.231-.028.234-.027.236-.024.238-.023.241-.02.243-.019.245-.016.247-.015.249-.012.251-.01.253-.008.255-.005.256-.004.258-.001.258.001zm-9.258 20.499v.01l.001.021.003.021.004.022.005.021.006.022.007.022.009.023.01.022.011.023.012.023.013.023.015.023.016.024.017.023.018.024.019.024.021.024.022.025.023.024.024.025.052.049.056.05.061.051.066.051.07.051.075.051.079.052.084.052.088.052.092.052.097.052.102.051.105.052.11.052.114.051.119.051.123.051.127.05.131.05.135.05.139.048.144.049.147.047.152.047.155.047.16.045.163.045.167.043.171.043.176.041.178.041.183.039.187.039.19.037.194.035.197.035.202.033.204.031.209.03.212.029.216.027.219.025.222.024.226.021.23.02.233.018.236.016.24.015.243.012.246.01.249.008.253.005.256.004.259.001.26-.001.257-.004.254-.005.25-.008.247-.011.244-.012.241-.014.237-.016.233-.018.231-.021.226-.021.224-.024.22-.026.216-.027.212-.028.21-.031.205-.031.202-.034.198-.034.194-.036.191-.037.187-.039.183-.04.179-.04.175-.042.172-.043.168-.044.163-.045.16-.046.155-.046.152-.047.148-.048.143-.049.139-.049.136-.05.131-.05.126-.05.123-.051.118-.052.114-.051.11-.052.106-.052.101-.052.096-.052.092-.052.088-.053.083-.051.079-.052.074-.052.07-.051.065-.051.06-.051.056-.05.051-.05.023-.024.023-.025.021-.024.02-.024.019-.024.018-.024.017-.024.015-.023.014-.024.013-.023.012-.023.01-.023.01-.022.008-.022.006-.022.006-.022.004-.022.004-.021.001-.021.001-.021v-4.127l-.077.055-.08.053-.083.054-.085.053-.087.052-.09.052-.093.051-.095.05-.097.05-.1.049-.102.049-.105.048-.106.047-.109.047-.111.046-.114.045-.115.045-.118.044-.12.043-.122.042-.124.042-.126.041-.128.04-.13.04-.132.038-.134.038-.135.037-.138.037-.139.035-.142.035-.143.034-.144.033-.147.032-.148.031-.15.03-.151.03-.153.029-.154.027-.156.027-.158.026-.159.025-.161.024-.162.023-.163.022-.165.021-.166.02-.167.019-.169.018-.169.017-.171.016-.173.015-.173.014-.175.013-.175.012-.177.011-.178.01-.179.008-.179.008-.181.006-.182.005-.182.004-.184.003-.184.002h-.37l-.184-.002-.184-.003-.182-.004-.182-.005-.181-.006-.179-.008-.179-.008-.178-.01-.176-.011-.176-.012-.175-.013-.173-.014-.172-.015-.171-.016-.17-.017-.169-.018-.167-.019-.166-.02-.165-.021-.163-.022-.162-.023-.161-.024-.159-.025-.157-.026-.156-.027-.155-.027-.153-.029-.151-.03-.15-.03-.148-.031-.146-.032-.145-.033-.143-.034-.141-.035-.14-.035-.137-.037-.136-.037-.134-.038-.132-.038-.13-.04-.128-.04-.126-.041-.124-.042-.122-.042-.12-.044-.117-.043-.116-.045-.113-.045-.112-.046-.109-.047-.106-.047-.105-.048-.102-.049-.1-.049-.097-.05-.095-.05-.093-.052-.09-.051-.087-.052-.085-.053-.083-.054-.08-.054-.077-.054v4.127zm0-5.654v.011l.001.021.003.021.004.021.005.022.006.022.007.022.009.022.01.022.011.023.012.023.013.023.015.024.016.023.017.024.018.024.019.024.021.024.022.024.023.025.024.024.052.05.056.05.061.05.066.051.07.051.075.052.079.051.084.052.088.052.092.052.097.052.102.052.105.052.11.051.114.051.119.052.123.05.127.051.131.05.135.049.139.049.144.048.147.048.152.047.155.046.16.045.163.045.167.044.171.042.176.042.178.04.183.04.187.038.19.037.194.036.197.034.202.033.204.032.209.03.212.028.216.027.219.025.222.024.226.022.23.02.233.018.236.016.24.014.243.012.246.01.249.008.253.006.256.003.259.001.26-.001.257-.003.254-.006.25-.008.247-.01.244-.012.241-.015.237-.016.233-.018.231-.02.226-.022.224-.024.22-.025.216-.027.212-.029.21-.03.205-.032.202-.033.198-.035.194-.036.191-.037.187-.039.183-.039.179-.041.175-.042.172-.043.168-.044.163-.045.16-.045.155-.047.152-.047.148-.048.143-.048.139-.05.136-.049.131-.05.126-.051.123-.051.118-.051.114-.052.11-.052.106-.052.101-.052.096-.052.092-.052.088-.052.083-.052.079-.052.074-.051.07-.052.065-.051.06-.05.056-.051.051-.049.023-.025.023-.024.021-.025.02-.024.019-.024.018-.024.017-.024.015-.023.014-.023.013-.024.012-.022.01-.023.01-.023.008-.022.006-.022.006-.022.004-.021.004-.022.001-.021.001-.021v-4.139l-.077.054-.08.054-.083.054-.085.052-.087.053-.09.051-.093.051-.095.051-.097.05-.1.049-.102.049-.105.048-.106.047-.109.047-.111.046-.114.045-.115.044-.118.044-.12.044-.122.042-.124.042-.126.041-.128.04-.13.039-.132.039-.134.038-.135.037-.138.036-.139.036-.142.035-.143.033-.144.033-.147.033-.148.031-.15.03-.151.03-.153.028-.154.028-.156.027-.158.026-.159.025-.161.024-.162.023-.163.022-.165.021-.166.02-.167.019-.169.018-.169.017-.171.016-.173.015-.173.014-.175.013-.175.012-.177.011-.178.009-.179.009-.179.007-.181.007-.182.005-.182.004-.184.003-.184.002h-.37l-.184-.002-.184-.003-.182-.004-.182-.005-.181-.007-.179-.007-.179-.009-.178-.009-.176-.011-.176-.012-.175-.013-.173-.014-.172-.015-.171-.016-.17-.017-.169-.018-.167-.019-.166-.02-.165-.021-.163-.022-.162-.023-.161-.024-.159-.025-.157-.026-.156-.027-.155-.028-.153-.028-.151-.03-.15-.03-.148-.031-.146-.033-.145-.033-.143-.033-.141-.035-.14-.036-.137-.036-.136-.037-.134-.038-.132-.039-.13-.039-.128-.04-.126-.041-.124-.042-.122-.043-.12-.043-.117-.044-.116-.044-.113-.046-.112-.046-.109-.046-.106-.047-.105-.048-.102-.049-.1-.049-.097-.05-.095-.051-.093-.051-.09-.051-.087-.053-.085-.052-.083-.054-.08-.054-.077-.054v4.139zm0-5.666v.011l.001.02.003.022.004.021.005.022.006.021.007.022.009.023.01.022.011.023.012.023.013.023.015.023.016.024.017.024.018.023.019.024.021.025.022.024.023.024.024.025.052.05.056.05.061.05.066.051.07.051.075.052.079.051.084.052.088.052.092.052.097.052.102.052.105.051.11.052.114.051.119.051.123.051.127.05.131.05.135.05.139.049.144.048.147.048.152.047.155.046.16.045.163.045.167.043.171.043.176.042.178.04.183.04.187.038.19.037.194.036.197.034.202.033.204.032.209.03.212.028.216.027.219.025.222.024.226.021.23.02.233.018.236.017.24.014.243.012.246.01.249.008.253.006.256.003.259.001.26-.001.257-.003.254-.006.25-.008.247-.01.244-.013.241-.014.237-.016.233-.018.231-.02.226-.022.224-.024.22-.025.216-.027.212-.029.21-.03.205-.032.202-.033.198-.035.194-.036.191-.037.187-.039.183-.039.179-.041.175-.042.172-.043.168-.044.163-.045.16-.045.155-.047.152-.047.148-.048.143-.049.139-.049.136-.049.131-.051.126-.05.123-.051.118-.052.114-.051.11-.052.106-.052.101-.052.096-.052.092-.052.088-.052.083-.052.079-.052.074-.052.07-.051.065-.051.06-.051.056-.05.051-.049.023-.025.023-.025.021-.024.02-.024.019-.024.018-.024.017-.024.015-.023.014-.024.013-.023.012-.023.01-.022.01-.023.008-.022.006-.022.006-.022.004-.022.004-.021.001-.021.001-.021v-4.153l-.077.054-.08.054-.083.053-.085.053-.087.053-.09.051-.093.051-.095.051-.097.05-.1.049-.102.048-.105.048-.106.048-.109.046-.111.046-.114.046-.115.044-.118.044-.12.043-.122.043-.124.042-.126.041-.128.04-.13.039-.132.039-.134.038-.135.037-.138.036-.139.036-.142.034-.143.034-.144.033-.147.032-.148.032-.15.03-.151.03-.153.028-.154.028-.156.027-.158.026-.159.024-.161.024-.162.023-.163.023-.165.021-.166.02-.167.019-.169.018-.169.017-.171.016-.173.015-.173.014-.175.013-.175.012-.177.01-.178.01-.179.009-.179.007-.181.006-.182.006-.182.004-.184.003-.184.001-.185.001-.185-.001-.184-.001-.184-.003-.182-.004-.182-.006-.181-.006-.179-.007-.179-.009-.178-.01-.176-.01-.176-.012-.175-.013-.173-.014-.172-.015-.171-.016-.17-.017-.169-.018-.167-.019-.166-.02-.165-.021-.163-.023-.162-.023-.161-.024-.159-.024-.157-.026-.156-.027-.155-.028-.153-.028-.151-.03-.15-.03-.148-.032-.146-.032-.145-.033-.143-.034-.141-.034-.14-.036-.137-.036-.136-.037-.134-.038-.132-.039-.13-.039-.128-.041-.126-.041-.124-.041-.122-.043-.12-.043-.117-.044-.116-.044-.113-.046-.112-.046-.109-.046-.106-.048-.105-.048-.102-.048-.1-.05-.097-.049-.095-.051-.093-.051-.09-.052-.087-.052-.085-.053-.083-.053-.08-.054-.077-.054v4.153zm8.74-8.179l-.257.004-.254.005-.25.008-.247.011-.244.012-.241.014-.237.016-.233.018-.231.021-.226.022-.224.023-.22.026-.216.027-.212.028-.21.031-.205.032-.202.033-.198.034-.194.036-.191.038-.187.038-.183.04-.179.041-.175.042-.172.043-.168.043-.163.045-.16.046-.155.046-.152.048-.148.048-.143.048-.139.049-.136.05-.131.05-.126.051-.123.051-.118.051-.114.052-.11.052-.106.052-.101.052-.096.052-.092.052-.088.052-.083.052-.079.052-.074.051-.07.052-.065.051-.06.05-.056.05-.051.05-.023.025-.023.024-.021.024-.02.025-.019.024-.018.024-.017.023-.015.024-.014.023-.013.023-.012.023-.01.023-.01.022-.008.022-.006.023-.006.021-.004.022-.004.021-.001.021-.001.021.001.021.001.021.004.021.004.022.006.021.006.023.008.022.01.022.01.023.012.023.013.023.014.023.015.024.017.023.018.024.019.024.02.025.021.024.023.024.023.025.051.05.056.05.06.05.065.051.07.052.074.051.079.052.083.052.088.052.092.052.096.052.101.052.106.052.11.052.114.052.118.051.123.051.126.051.131.05.136.05.139.049.143.048.148.048.152.048.155.046.16.046.163.045.168.043.172.043.175.042.179.041.183.04.187.038.191.038.194.036.198.034.202.033.205.032.21.031.212.028.216.027.22.026.224.023.226.022.231.021.233.018.237.016.241.014.244.012.247.011.25.008.254.005.257.004.26.001.26-.001.257-.004.254-.005.25-.008.247-.011.244-.012.241-.014.237-.016.233-.018.231-.021.226-.022.224-.023.22-.026.216-.027.212-.028.21-.031.205-.032.202-.033.198-.034.194-.036.191-.038.187-.038.183-.04.179-.041.175-.042.172-.043.168-.043.163-.045.16-.046.155-.046.152-.048.148-.048.143-.048.139-.049.136-.05.131-.05.126-.051.123-.051.118-.051.114-.052.11-.052.106-.052.101-.052.096-.052.092-.052.088-.052.083-.052.079-.052.074-.051.07-.052.065-.051.06-.05.056-.05.051-.05.023-.025.023-.024.021-.024.02-.025.019-.024.018-.024.017-.023.015-.024.014-.023.013-.023.012-.023.01-.023.01-.022.008-.022.006-.023.006-.021.004-.022.004-.021.001-.021.001-.021-.001-.021-.001-.021-.004-.021-.004-.022-.006-.021-.006-.023-.008-.022-.01-.022-.01-.023-.012-.023-.013-.023-.014-.023-.015-.024-.017-.023-.018-.024-.019-.024-.02-.025-.021-.024-.023-.024-.023-.025-.051-.05-.056-.05-.06-.05-.065-.051-.07-.052-.074-.051-.079-.052-.083-.052-.088-.052-.092-.052-.096-.052-.101-.052-.106-.052-.11-.052-.114-.052-.118-.051-.123-.051-.126-.051-.131-.05-.136-.05-.139-.049-.143-.048-.148-.048-.152-.048-.155-.046-.16-.046-.163-.045-.168-.043-.172-.043-.175-.042-.179-.041-.183-.04-.187-.038-.191-.038-.194-.036-.198-.034-.202-.033-.205-.032-.21-.031-.212-.028-.216-.027-.22-.026-.224-.023-.226-.022-.231-.021-.233-.018-.237-.016-.241-.014-.244-.012-.247-.011-.25-.008-.254-.005-.257-.004-.26-.001-.26.001z" transform="scale(.5)"/></symbol></defs><defs><symbol height="24" width="24" id="clock"><path d="M12 2c5.514 0 10 4.486 10 10s-4.486 10-10 10-10-4.486-10-10 4.486-10 10-10zm0-2c-6.627 0-12 5.373-12 12s5.373 12 12 12 12-5.373 12-12-5.373-12-12-12zm5.848 12.459c.202.038.202.333.001.372-1.907.361-6.045 1.111-6.547 1.111-.719 0-1.301-.582-1.301-1.301 0-.512.77-5.447 1.125-7.445.034-.192.312-.181.343.014l.985 6.238 5.394 1.011z" transform="scale(.5)"/></symbol></defs><defs><marker orient="auto" markerHeight="12" markerWidth="12" markerUnits="userSpaceOnUse" refY="5" refX="9" id="arrowhead"><path d="M 0 0 L 10 5 L 0 10 z"/></marker></defs><defs><marker refY="5" refX="4" orient="auto" markerHeight="8" markerWidth="15" id="crosshead"><path style="stroke-dasharray: 0, 0;" d="M 1,2 L 6,7 M 6,2 L 1,7" stroke-width="1pt" stroke="#000000" fill="none"/></marker></defs><defs><marker orient="auto" markerHeight="28" markerWidth="20" refY="7" refX="18" id="filled-head"><path d="M 18,7 L9,13 L14,7 L9,1 Z"/></marker></defs><defs><marker orient="auto" markerHeight="40" markerWidth="60" refY="15" refX="15" id="sequencenumber"><circle r="6" cy="15" cx="15"/></marker></defs><g><rect class="activation0" ry="0" rx="0" height="365" width="10" stroke="#666" fill="#EDF2AE" y="96" x="1659.5"/></g><g><rect class="activation0" ry="0" rx="0" height="1501" width="10" stroke="#666" fill="#EDF2AE" y="597" x="298"/></g><g><rect class="activation0" ry="0" rx="0" height="236" width="10" stroke="#666" fill="#EDF2AE" y="693" x="907.5"/></g><g><rect class="activation0" ry="0" rx="0" height="50" width="10" stroke="#666" fill="#EDF2AE" y="745" x="1280.5"/></g><g><rect class="activation0" ry="0" rx="0" height="132" width="10" stroke="#666" fill="#EDF2AE" y="1004" x="670"/></g><g><rect class="activation0" ry="0" rx="0" height="546" width="10" stroke="#666" fill="#EDF2AE" y="1232" x="2384.5"/></g><g><rect class="activation0" ry="0" rx="0" height="132" width="10" stroke="#666" fill="#EDF2AE" y="1305" x="907.5"/></g><g><rect class="activation0" ry="0" rx="0" height="132" width="10" stroke="#666" fill="#EDF2AE" y="1512" x="2006.5"/></g><g><rect class="activation0" ry="0" rx="0" height="214" width="10" stroke="#666" fill="#EDF2AE" y="1832" x="2789.5"/></g><line stroke="#999" stroke-width="0.5px" class="200" y2="2118" x2="75" y1="111" x1="75" id="actor6999"/><g class="actor-man"><line y2="76" x2="75" y1="56" x1="75" id="actor-man-torso6999"/><line y2="64" x2="93" y1="64" x1="57" id="actor-man-arms6999"/><line y2="76" x2="75" y1="91" x1="57"/><line y2="91" x2="91" y1="76" x1="75"/><circle height="65" width="150" r="15" cy="41" cx="75"/><text style="text-anchor: middle; font-size: 16px; font-weight: 400;" class="actor" alignment-baseline="central" dominant-baseline="central" y="98.5" x="75"><tspan dy="0" x="75">Slutanvändare</tspan></text></g><line stroke="#999" stroke-width="0.5px" class="200" y2="2118" x2="1664.5" y1="111" x1="1664.5" id="actor7004"/><g class="actor-man"><line y2="76" x2="1664.5" y1="56" x1="1664.5" id="actor-man-torso7004"/><line y2="64" x2="1682.5" y1="64" x1="1646.5" id="actor-man-arms7004"/><line y2="76" x2="1664.5" y1="91" x1="1646.5"/><line y2="91" x2="1680.5" y1="76" x1="1664.5"/><circle height="65" width="164" r="15" cy="41" cx="1664.5"/><text style="text-anchor: middle; font-size: 16px; font-weight: 400;" class="actor" alignment-baseline="central" dominant-baseline="central" y="98.5" x="1664.5"><tspan dy="0" x="1664.5">Federationsoperatör</tspan></text></g><line stroke="#999" stroke-width="0.5px" class="200" y2="2118" x2="2594.5" y1="111" x1="2594.5" id="actor7007"/><g class="actor-man"><line y2="76" x2="2594.5" y1="56" x1="2594.5" id="actor-man-torso7007"/><line y2="64" x2="2612.5" y1="64" x1="2576.5" id="actor-man-arms7007"/><line y2="76" x2="2594.5" y1="91" x1="2576.5"/><line y2="91" x2="2610.5" y1="76" x1="2594.5"/><circle height="65" width="150" r="15" cy="41" cx="2594.5"/><text style="text-anchor: middle; font-size: 16px; font-weight: 400;" class="actor" alignment-baseline="central" dominant-baseline="central" y="98.5" x="2594.5"><tspan dy="0" x="2594.5">API-leverantör</tspan></text></g><text style="font-size: 16px; font-weight: 400;" dy="1em" class="messageText" alignment-baseline="middle" dominant-baseline="middle" text-anchor="middle" y="111" x="1473">registrera informationsfederationsavtal med </text><text style="font-size: 16px; font-weight: 400;" dy="1em" class="messageText" alignment-baseline="middle" dominant-baseline="middle" text-anchor="middle" y="130" x="1473">Leverantör av digital tjänst via API</text><line style="fill: none;" marker-end="url(#filled-head)" stroke="none" stroke-width="2" class="messageLine0" y2="169" x2="1285.5" y1="169" x1="1659.5"/><text style="font-size: 16px; font-weight: 400;" dy="1em" class="messageText" alignment-baseline="middle" dominant-baseline="middle" text-anchor="middle" y="184" x="1841">registrera Leverantör av digital tjänst </text><text style="font-size: 16px; font-weight: 400;" dy="1em" class="messageText" alignment-baseline="middle" dominant-baseline="middle" text-anchor="middle" y="203" x="1841">via API i Federationsmedlemskatalogen</text><line style="fill: none;" marker-end="url(#filled-head)" stroke="none" stroke-width="2" class="messageLine0" y2="242" x2="2011.5" y1="242" x1="1669.5"/><text style="font-size: 16px; font-weight: 400;" dy="1em" class="messageText" alignment-baseline="middle" dominant-baseline="middle" text-anchor="middle" y="257" x="1167">registrera API i Tjänstekatalogen</text><line style="fill: none;" marker-end="url(#filled-head)" stroke="none" stroke-width="2" class="messageLine0" y2="294" x2="675" y1="294" x1="1659.5"/><text style="font-size: 16px; font-weight: 400;" dy="1em" class="messageText" alignment-baseline="middle" dominant-baseline="middle" text-anchor="middle" y="309" x="1473">registrera informationsfederationsavtal med </text><text style="font-size: 16px; font-weight: 400;" dy="1em" class="messageText" alignment-baseline="middle" dominant-baseline="middle" text-anchor="middle" y="328" x="1473">Leverantör av API-klient</text><line style="fill: none;" marker-end="url(#filled-head)" stroke="none" stroke-width="2" class="messageLine0" y2="367" x2="1285.5" y1="367" x1="1659.5"/><text style="font-size: 16px; font-weight: 400;" dy="1em" class="messageText" alignment-baseline="middle" dominant-baseline="middle" text-anchor="middle" y="382" x="1841">registrera Leverantör av API-klient, </text><text style="font-size: 16px; font-weight: 400;" dy="1em" class="messageText" alignment-baseline="middle" dominant-baseline="middle" text-anchor="middle" y="401" x="1841">samt API-klientens metadata </text><text style="font-size: 16px; font-weight: 400;" dy="1em" class="messageText" alignment-baseline="middle" dominant-baseline="middle" text-anchor="middle" y="419" x="1841">i Federationsmedlemskatalogen</text><line style="fill: none;" marker-end="url(#filled-head)" stroke="none" stroke-width="2" class="messageLine0" y2="461" x2="2011.5" y1="461" x1="1669.5"/><text style="font-size: 16px; font-weight: 400;" dy="1em" class="messageText" alignment-baseline="middle" dominant-baseline="middle" text-anchor="middle" y="476" x="189">En slutanvändare kan, </text><text style="font-size: 16px; font-weight: 400;" dy="1em" class="messageText" alignment-baseline="middle" dominant-baseline="middle" text-anchor="middle" y="495" x="189">men behöver inte, </text><text style="font-size: 16px; font-weight: 400;" dy="1em" class="messageText" alignment-baseline="middle" dominant-baseline="middle" text-anchor="middle" y="513" x="189">vara inblandad</text><text style="font-size: 16px; font-weight: 400;" dy="1em" class="messageText" alignment-baseline="middle" dominant-baseline="middle" text-anchor="middle" y="532" x="189">​</text><text style="font-size: 16px; font-weight: 400;" dy="1em" class="messageText" alignment-baseline="middle" dominant-baseline="middle" text-anchor="middle" y="551" x="189">Inled interaktion</text><line style="stroke-dasharray: 3, 3; fill: none;" marker-end="url(#arrowhead)" stroke="none" stroke-width="2" class="messageLine1" y2="597" x2="303" y1="597" x1="75"/><text style="font-size: 16px; font-weight: 400;" dy="1em" class="messageText" alignment-baseline="middle" dominant-baseline="middle" text-anchor="middle" y="612" x="610">Begär åtkomst till Tjänstekatalogen. </text><text style="font-size: 16px; font-weight: 400;" dy="1em" class="messageText" alignment-baseline="middle" dominant-baseline="middle" text-anchor="middle" y="631" x="610">Skicka med API-klientens, och</text><text style="font-size: 16px; font-weight: 400;" dy="1em" class="messageText" alignment-baseline="middle" dominant-baseline="middle" text-anchor="middle" y="649" x="610">eventuell slutanvändares identitet</text><line style="fill: none;" marker-end="url(#arrowhead)" stroke="none" stroke-width="2" class="messageLine0" y2="691" x2="912.5" y1="691" x1="308"/><text style="font-size: 16px; font-weight: 400;" dy="1em" class="messageText" alignment-baseline="middle" dominant-baseline="middle" text-anchor="middle" y="706" x="1102">Inhämta beslutsunderlag för åtkomstbeslut</text><line style="fill: none;" marker-end="url(#arrowhead)" stroke="none" stroke-width="2" class="messageLine0" y2="743" x2="1285.5" y1="743" x1="917.5"/><text style="font-size: 16px; font-weight: 400;" dy="1em" class="messageText" alignment-baseline="middle" dominant-baseline="middle" text-anchor="middle" y="758" x="1099">avtal</text><line style="stroke-dasharray: 3, 3; fill: none;" marker-end="url(#arrowhead)" stroke="none" stroke-width="2" class="messageLine1" y2="795" x2="917.5" y1="795" x1="1280.5"/><text style="font-size: 16px; font-weight: 400;" dy="1em" class="messageText" alignment-baseline="middle" dominant-baseline="middle" text-anchor="middle" y="810" x="918">Utvärdera åtkomstpolicy för Tjänstekatalogen</text><path style="fill: none;" marker-end="url(#arrowhead)" stroke="none" stroke-width="2" class="messageLine0" d="M 917.5,847 C 977.5,837 977.5,877 917.5,867"/><text style="font-size: 16px; font-weight: 400;" dy="1em" class="messageText" alignment-baseline="middle" dominant-baseline="middle" text-anchor="middle" y="892" x="608">åtkomstintyg</text><line style="stroke-dasharray: 3, 3; fill: none;" marker-end="url(#arrowhead)" stroke="none" stroke-width="2" class="messageLine1" y2="929" x2="308" y1="929" x1="907.5"/><text style="font-size: 16px; font-weight: 400;" dy="1em" class="messageText" alignment-baseline="middle" dominant-baseline="middle" text-anchor="middle" y="944" x="492">Sök API, givet logisk adressat </text><text style="font-size: 16px; font-weight: 400;" dy="1em" class="messageText" alignment-baseline="middle" dominant-baseline="middle" text-anchor="middle" y="963" x="492"> och interoperabilitetsspecifikation</text><line style="fill: none;" marker-end="url(#arrowhead)" stroke="none" stroke-width="2" class="messageLine0" y2="1002" x2="675" y1="1002" x1="308"/><text style="font-size: 16px; font-weight: 400;" dy="1em" class="messageText" alignment-baseline="middle" dominant-baseline="middle" text-anchor="middle" y="1017" x="680">validera åtkomstintyg</text><path style="fill: none;" marker-end="url(#arrowhead)" stroke="none" stroke-width="2" class="messageLine0" d="M 680,1054 C 740,1044 740,1084 680,1074"/><text style="font-size: 16px; font-weight: 400;" dy="1em" class="messageText" alignment-baseline="middle" dominant-baseline="middle" text-anchor="middle" y="1099" x="489">APIets URL, Auktorisationstjänstens URL</text><line style="stroke-dasharray: 3, 3; fill: none;" marker-end="url(#arrowhead)" stroke="none" stroke-width="2" class="messageLine1" y2="1136" x2="308" y1="1136" x1="670"/><text style="font-size: 16px; font-weight: 400;" dy="1em" class="messageText" alignment-baseline="middle" dominant-baseline="middle" text-anchor="middle" y="1151" x="1349">Begär åtkomst till API. </text><text style="font-size: 16px; font-weight: 400;" dy="1em" class="messageText" alignment-baseline="middle" dominant-baseline="middle" text-anchor="middle" y="1170" x="1349">Skicka med API-klientens identitet, och</text><text style="font-size: 16px; font-weight: 400;" dy="1em" class="messageText" alignment-baseline="middle" dominant-baseline="middle" text-anchor="middle" y="1188" x="1349">eventuell slutanvändares identitet</text><line style="fill: none;" marker-end="url(#arrowhead)" stroke="none" stroke-width="2" class="messageLine0" y2="1230" x2="2389.5" y1="1230" x1="308"/><text style="font-size: 16px; font-weight: 400;" dy="1em" class="messageText" alignment-baseline="middle" dominant-baseline="middle" text-anchor="middle" y="1245" x="1649">Begär åtkomst till Federationsmedlemskatalogen. </text><text style="font-size: 16px; font-weight: 400;" dy="1em" class="messageText" alignment-baseline="middle" dominant-baseline="middle" text-anchor="middle" y="1264" x="1649">Skicka med Auktorisationstjänstens identitet</text><line style="fill: none;" marker-end="url(#arrowhead)" stroke="none" stroke-width="2" class="messageLine0" y2="1303" x2="912.5" y1="1303" x1="2384.5"/><text style="font-size: 16px; font-weight: 400;" dy="1em" class="messageText" alignment-baseline="middle" dominant-baseline="middle" text-anchor="middle" y="1318" x="918">Utvärdera åtkomstpolicy för Federationsmedlemskatalogen</text><path style="fill: none;" marker-end="url(#arrowhead)" stroke="none" stroke-width="2" class="messageLine0" d="M 917.5,1355 C 977.5,1345 977.5,1385 917.5,1375"/><text style="font-size: 16px; font-weight: 400;" dy="1em" class="messageText" alignment-baseline="middle" dominant-baseline="middle" text-anchor="middle" y="1400" x="1651">åtkomstintyg</text><line style="stroke-dasharray: 3, 3; fill: none;" marker-end="url(#arrowhead)" stroke="none" stroke-width="2" class="messageLine1" y2="1437" x2="2384.5" y1="1437" x1="917.5"/><text style="font-size: 16px; font-weight: 400;" dy="1em" class="messageText" alignment-baseline="middle" dominant-baseline="middle" text-anchor="middle" y="1452" x="2198">inhämta federationsmedlemsinformation </text><text style="font-size: 16px; font-weight: 400;" dy="1em" class="messageText" alignment-baseline="middle" dominant-baseline="middle" text-anchor="middle" y="1471" x="2198"> för e-tjänsten</text><line style="fill: none;" marker-end="url(#arrowhead)" stroke="none" stroke-width="2" class="messageLine0" y2="1510" x2="2011.5" y1="1510" x1="2384.5"/><text style="font-size: 16px; font-weight: 400;" dy="1em" class="messageText" alignment-baseline="middle" dominant-baseline="middle" text-anchor="middle" y="1525" x="2017">validera åtkomstintyg</text><path style="fill: none;" marker-end="url(#arrowhead)" stroke="none" stroke-width="2" class="messageLine0" d="M 2016.5,1562 C 2076.5,1552 2076.5,1592 2016.5,1582"/><text style="font-size: 16px; font-weight: 400;" dy="1em" class="messageText" alignment-baseline="middle" dominant-baseline="middle" text-anchor="middle" y="1607" x="2201">federationsmedlemsdata</text><line style="stroke-dasharray: 3, 3; fill: none;" marker-end="url(#arrowhead)" stroke="none" stroke-width="2" class="messageLine1" y2="1644" x2="2384.5" y1="1644" x1="2016.5"/><text style="font-size: 16px; font-weight: 400;" dy="1em" class="messageText" alignment-baseline="middle" dominant-baseline="middle" text-anchor="middle" y="1659" x="2395">Utvärdera åtkomstpolicy för API</text><path style="fill: none;" marker-end="url(#arrowhead)" stroke="none" stroke-width="2" class="messageLine0" d="M 2394.5,1696 C 2454.5,1686 2454.5,1726 2394.5,1716"/><text style="font-size: 16px; font-weight: 400;" dy="1em" class="messageText" alignment-baseline="middle" dominant-baseline="middle" text-anchor="middle" y="1741" x="1346">åtkomstintyg</text><line style="stroke-dasharray: 3, 3; fill: none;" marker-end="url(#arrowhead)" stroke="none" stroke-width="2" class="messageLine1" y2="1778" x2="308" y1="1778" x1="2384.5"/><text style="font-size: 16px; font-weight: 400;" dy="1em" class="messageText" alignment-baseline="middle" dominant-baseline="middle" text-anchor="middle" y="1793" x="1551">Anropa API</text><line style="fill: none;" marker-end="url(#arrowhead)" stroke="none" stroke-width="2" class="messageLine0" y2="1830" x2="2794.5" y1="1830" x1="308"/><text style="font-size: 16px; font-weight: 400;" dy="1em" class="messageText" alignment-baseline="middle" dominant-baseline="middle" text-anchor="middle" y="1845" x="2800">validera åtkomstintyg</text><path style="fill: none;" marker-end="url(#arrowhead)" stroke="none" stroke-width="2" class="messageLine0" d="M 2799.5,1882 C 2859.5,1872 2859.5,1912 2799.5,1902"/><text style="font-size: 16px; font-weight: 400;" dy="1em" class="messageText" alignment-baseline="middle" dominant-baseline="middle" text-anchor="middle" y="1927" x="2800">utför begäran</text><path style="fill: none;" marker-end="url(#arrowhead)" stroke="none" stroke-width="2" class="messageLine0" d="M 2799.5,1964 C 2859.5,1954 2859.5,1994 2799.5,1984"/><text style="font-size: 16px; font-weight: 400;" dy="1em" class="messageText" alignment-baseline="middle" dominant-baseline="middle" text-anchor="middle" y="2009" x="1549">resultat</text><line style="stroke-dasharray: 3, 3; fill: none;" marker-end="url(#arrowhead)" stroke="none" stroke-width="2" class="messageLine1" y2="2046" x2="308" y1="2046" x1="2789.5"/><text style="font-size: 16px; font-weight: 400;" dy="1em" class="messageText" alignment-baseline="middle" dominant-baseline="middle" text-anchor="middle" y="2061" x="187">Visa resultat</text><line style="stroke-dasharray: 3, 3; fill: none;" marker-end="url(#arrowhead)" stroke="none" stroke-width="2" class="messageLine1" y2="2098" x2="75" y1="2098" x1="298"/><g class="actor-man"><line y2="2163" x2="75" y1="2143" x1="75" id="actor-man-torso7008"/><line y2="2151" x2="93" y1="2151" x1="57" id="actor-man-arms7008"/><line y2="2163" x2="75" y1="2178" x1="57"/><line y2="2178" x2="91" y1="2163" x1="75"/><circle height="65" width="150" r="15" cy="2128" cx="75"/><text style="text-anchor: middle; font-size: 16px; font-weight: 400;" class="actor" alignment-baseline="central" dominant-baseline="central" y="2185.5" x="75"><tspan dy="0" x="75">Slutanvändare</tspan></text></g><g class="actor-man"><line y2="2163" x2="1664.5" y1="2143" x1="1664.5" id="actor-man-torso7008"/><line y2="2151" x2="1682.5" y1="2151" x1="1646.5" id="actor-man-arms7008"/><line y2="2163" x2="1664.5" y1="2178" x1="1646.5"/><line y2="2178" x2="1680.5" y1="2163" x1="1664.5"/><circle height="65" width="164" r="15" cy="2128" cx="1664.5"/><text style="text-anchor: middle; font-size: 16px; font-weight: 400;" class="actor" alignment-baseline="central" dominant-baseline="central" y="2185.5" x="1664.5"><tspan dy="0" x="1664.5">Federationsoperatör</tspan></text></g><g class="actor-man"><line y2="2163" x2="2594.5" y1="2143" x1="2594.5" id="actor-man-torso7008"/><line y2="2151" x2="2612.5" y1="2151" x1="2576.5" id="actor-man-arms7008"/><line y2="2163" x2="2594.5" y1="2178" x1="2576.5"/><line y2="2178" x2="2610.5" y1="2163" x1="2594.5"/><circle height="65" width="150" r="15" cy="2128" cx="2594.5"/><text style="text-anchor: middle; font-size: 16px; font-weight: 400;" class="actor" alignment-baseline="central" dominant-baseline="central" y="2185.5" x="2594.5"><tspan dy="0" x="2594.5">API-leverantör</tspan></text></g></svg>