<svg aria-roledescription="er" role="graphics-document document" viewBox="0 0 2247.393798828125 1865" style="max-width: 2247.39px; background-color: rgb(255, 255, 255);" xmlns:xlink="http://www.w3.org/1999/xlink" xmlns="http://www.w3.org/2000/svg" width="100%" id="mermaid-1693205844845"><style>#mermaid-1693205844845{font-family:"trebuchet ms",verdana,arial,sans-serif;font-size:16px;fill:#000000;}#mermaid-1693205844845 .error-icon{fill:#552222;}#mermaid-1693205844845 .error-text{fill:#552222;stroke:#552222;}#mermaid-1693205844845 .edge-thickness-normal{stroke-width:2px;}#mermaid-1693205844845 .edge-thickness-thick{stroke-width:3.5px;}#mermaid-1693205844845 .edge-pattern-solid{stroke-dasharray:0;}#mermaid-1693205844845 .edge-pattern-dashed{stroke-dasharray:3;}#mermaid-1693205844845 .edge-pattern-dotted{stroke-dasharray:2;}#mermaid-1693205844845 .marker{fill:#000000;stroke:#000000;}#mermaid-1693205844845 .marker.cross{stroke:#000000;}#mermaid-1693205844845 svg{font-family:"trebuchet ms",verdana,arial,sans-serif;font-size:16px;}#mermaid-1693205844845 .entityBox{fill:#cde498;stroke:#13540c;}#mermaid-1693205844845 .attributeBoxOdd{fill:#ffffff;stroke:#13540c;}#mermaid-1693205844845 .attributeBoxEven{fill:#f2f2f2;stroke:#13540c;}#mermaid-1693205844845 .relationshipLabelBox{fill:hsl(78.1578947368, 58.4615384615%, 84.5098039216%);opacity:0.7;background-color:hsl(78.1578947368, 58.4615384615%, 84.5098039216%);}#mermaid-1693205844845 .relationshipLabelBox rect{opacity:0.5;}#mermaid-1693205844845 .relationshipLine{stroke:#000000;}#mermaid-1693205844845 .entityTitleText{text-anchor:middle;font-size:18px;fill:#000000;}#mermaid-1693205844845 :root{--mermaid-font-family:"trebuchet ms",verdana,arial,sans-serif;}</style><g/><defs><marker orient="auto" markerHeight="18" markerWidth="18" refY="9" refX="0" id="ONLY_ONE_START"><path d="M9,0 L9,18 M15,0 L15,18" fill="none" stroke="gray"/></marker></defs><defs><marker orient="auto" markerHeight="18" markerWidth="18" refY="9" refX="18" id="ONLY_ONE_END"><path d="M3,0 L3,18 M9,0 L9,18" fill="none" stroke="gray"/></marker></defs><defs><marker orient="auto" markerHeight="18" markerWidth="30" refY="9" refX="0" id="ZERO_OR_ONE_START"><circle r="6" cy="9" cx="21" fill="white" stroke="gray"/><path d="M9,0 L9,18" fill="none" stroke="gray"/></marker></defs><defs><marker orient="auto" markerHeight="18" markerWidth="30" refY="9" refX="30" id="ZERO_OR_ONE_END"><circle r="6" cy="9" cx="9" fill="white" stroke="gray"/><path d="M21,0 L21,18" fill="none" stroke="gray"/></marker></defs><defs><marker orient="auto" markerHeight="36" markerWidth="45" refY="18" refX="18" id="ONE_OR_MORE_START"><path d="M0,18 Q 18,0 36,18 Q 18,36 0,18 M42,9 L42,27" fill="none" stroke="gray"/></marker></defs><defs><marker orient="auto" markerHeight="36" markerWidth="45" refY="18" refX="27" id="ONE_OR_MORE_END"><path d="M3,9 L3,27 M9,18 Q27,0 45,18 Q27,36 9,18" fill="none" stroke="gray"/></marker></defs><defs><marker orient="auto" markerHeight="36" markerWidth="57" refY="18" refX="18" id="ZERO_OR_MORE_START"><circle r="6" cy="18" cx="48" fill="white" stroke="gray"/><path d="M0,18 Q18,0 36,18 Q18,36 0,18" fill="none" stroke="gray"/></marker></defs><defs><marker orient="auto" markerHeight="36" markerWidth="57" refY="18" refX="39" id="ZERO_OR_MORE_END"><circle r="6" cy="18" cx="9" fill="white" stroke="gray"/><path d="M21,18 Q39,0 57,18 Q39,36 21,18" fill="none" stroke="gray"/></marker></defs><path style="stroke: gray; fill: none;" marker-start="url(#ONE_OR_MORE_START)" marker-end="url(#ONE_OR_MORE_END)" d="M521.7063827514648,95L521.7063827514648,103.33333333333333C521.7063827514648,111.66666666666667,521.7063827514648,128.33333333333334,521.7063827514648,145C521.7063827514648,161.66666666666666,521.7063827514648,178.33333333333334,521.7063827514648,186.66666666666666L521.7063827514648,195" class="er relationshipLine"/><path style="stroke: gray; fill: none;" marker-start="url(#ONE_OR_MORE_START)" marker-end="url(#ONE_OR_MORE_END)" d="M434.404296875,268.4565657863555L413.54649607340497,277.04713815529624C392.6886952718099,285.637710524237,350.9730936686198,302.81885526211846,330.1152928670247,319.7427609643926C309.2574920654297,336.6666666666667,309.2574920654297,353.3333333333333,309.2574920654297,361.6666666666667L309.2574920654297,370" class="er relationshipLine"/><path style="stroke: gray; fill: none;" marker-start="url(#ONLY_ONE_START)" marker-end="url(#ONE_OR_MORE_END)" d="M521.7063827514648,270L521.7063827514648,278.3333333333333C521.7063827514648,286.6666666666667,521.7063827514648,303.3333333333333,521.7063827514648,326.25C521.7063827514648,349.1666666666667,521.7063827514648,378.3333333333333,521.7063827514648,407.5C521.7063827514648,436.6666666666667,521.7063827514648,465.8333333333333,521.7063827514648,495C521.7063827514648,524.1666666666666,521.7063827514648,553.3333333333334,521.7063827514648,582.5C521.7063827514648,611.6666666666666,521.7063827514648,640.8333333333334,521.7063827514648,670C521.7063827514648,699.1666666666666,521.7063827514648,728.3333333333334,521.7063827514648,757.5C521.7063827514648,786.6666666666666,521.7063827514648,815.8333333333334,521.7063827514648,838.75C521.7063827514648,861.6666666666666,521.7063827514648,878.3333333333334,521.7063827514648,886.6666666666666L521.7063827514648,895" class="er relationshipLine"/><path style="stroke: gray; fill: none;" marker-start="url(#ONLY_ONE_START)" marker-end="url(#ONE_OR_MORE_END)" d="M469.4588950020926,970L457.8483421688988,978.3333333333334C446.237789335705,986.6666666666666,423.0166836693173,1003.3333333333334,416.1680355980282,1020C409.31938752673915,1036.6666666666667,418.8431970505487,1053.3333333333333,423.6051018124535,1061.6666666666667L428.36700657435824,1070" class="er relationshipLine"/><path style="stroke: gray; fill: none;" marker-start="url(#ONLY_ONE_START)" marker-end="url(#ONLY_ONE_END)" d="M562.0861282348633,970L571.0594050089518,978.3333333333334C580.0326817830404,986.6666666666666,597.9792353312174,1003.3333333333334,611.7144168672107,1020C625.449598403204,1036.6666666666667,634.9734079270136,1053.3333333333333,639.7353126889183,1061.6666666666667L644.4972174508231,1070" class="er relationshipLine"/><path style="stroke: gray; fill: none;" marker-start="url(#ONE_OR_MORE_START)" marker-end="url(#ONLY_ONE_END)" d="M95.92857142857143,720L100.69047619047619,711.6666666666666C105.45238095238096,703.3333333333334,114.97619047619048,686.6666666666666,119.73809523809524,663.75C124.5,640.8333333333334,124.5,611.6666666666666,124.5,582.5C124.5,553.3333333333334,124.5,524.1666666666666,142.095951625279,501.25C159.69190325055806,478.3333333333333,194.88380650111608,461.6666666666667,212.47975812639513,453.3333333333333L230.0757097516741,445" class="er relationshipLine"/><path style="stroke: gray; fill: none;" marker-start="url(#ONLY_ONE_START)" marker-end="url(#ONLY_ONE_END)" d="M309.2574920654297,445L309.2574920654297,453.3333333333333C309.2574920654297,461.6666666666667,309.2574920654297,478.3333333333333,309.2574920654297,495C309.2574920654297,511.6666666666667,309.2574920654297,528.3333333333334,309.2574920654297,536.6666666666666L309.2574920654297,545" class="er relationshipLine"/><path style="stroke: gray; fill: none;" marker-start="url(#ONE_OR_MORE_START)" marker-end="url(#ONE_OR_MORE_END)" d="M421.70638275146484,420.0493439582735L533.6394335428873,432.5411199652279C645.5724843343099,445.03289597218236,869.4385859171549,470.0164479860912,981.3716367085775,490.8415573263789C1093.3046875,511.6666666666667,1093.3046875,528.3333333333334,1093.3046875,536.6666666666666L1093.3046875,545" class="er relationshipLine"/><path style="stroke: gray; fill: none;" marker-start="url(#ONE_OR_MORE_START)" marker-end="url(#ONLY_ONE_END)" d="M224.5,608.5441981769562L191.16666666666666,618.7868318141302C157.83333333333334,629.0294654513042,91.16666666666667,649.5147327256522,62.595238095238095,668.0906996961594C34.023809523809526,686.6666666666666,43.547619047619044,703.3333333333334,48.3095238095238,711.6666666666666L53.07142857142857,720" class="er relationshipLine"/><path style="stroke: gray; fill: none;" marker-start="url(#ONE_OR_MORE_START)" marker-end="url(#ONLY_ONE_END)" d="M394.0149841308594,596.4490742633468L468.50011825561523,608.7075618861223C542.9852523803711,620.9660495088979,691.9555206298828,645.4830247544489,766.4406547546387,672.3248457105578C840.9257888793945,699.1666666666666,840.9257888793945,728.3333333333334,840.9257888793945,757.5C840.9257888793945,786.6666666666666,840.9257888793945,815.8333333333334,840.9257888793945,845C840.9257888793945,874.1666666666666,840.9257888793945,903.3333333333334,840.9257888793945,932.5C840.9257888793945,961.6666666666666,840.9257888793945,990.8333333333334,840.9257888793945,1020C840.9257888793945,1049.1666666666667,840.9257888793945,1078.3333333333333,840.9257888793945,1107.5C840.9257888793945,1136.6666666666667,840.9257888793945,1165.8333333333333,840.9257888793945,1195C840.9257888793945,1224.1666666666667,840.9257888793945,1253.3333333333333,840.9257888793945,1282.5C840.9257888793945,1311.6666666666667,840.9257888793945,1340.8333333333333,840.9257888793945,1370C840.9257888793945,1399.1666666666667,840.9257888793945,1428.3333333333333,840.9257888793945,1457.5C840.9257888793945,1486.6666666666667,840.9257888793945,1515.8333333333333,840.9257888793945,1545C840.9257888793945,1574.1666666666667,840.9257888793945,1603.3333333333333,840.9257888793945,1632.5C840.9257888793945,1661.6666666666667,840.9257888793945,1690.8333333333333,928.5283819834391,1716.9405088278038C1016.1309750874838,1743.0476843222743,1191.336161295573,1766.0953686445484,1278.9387543996174,1777.6192108056857L1366.541347503662,1789.1430529668228" class="er relationshipLine"/><path style="stroke: gray; fill: none;" marker-start="url(#ONLY_ONE_START)" marker-end="url(#ONLY_ONE_END)" d="M1054.056224822998,620L1045.3343442281086,628.3333333333334C1036.6124636332195,636.6666666666666,1019.1687024434408,653.3333333333334,1010.4468218485514,670C1001.7249412536621,686.6666666666666,1001.7249412536621,703.3333333333334,1001.7249412536621,711.6666666666666L1001.7249412536621,720" class="er relationshipLine"/><path style="stroke: gray; fill: none;" marker-start="url(#ONLY_ONE_START)" marker-end="url(#ONLY_ONE_END)" d="M1122.9701472691127,620L1129.5624716622488,628.3333333333334C1136.154796055385,636.6666666666666,1149.3394448416573,653.3333333333334,1155.9317692347934,676.25C1162.5240936279297,699.1666666666666,1162.5240936279297,728.3333333333334,1162.5240936279297,757.5C1162.5240936279297,786.6666666666666,1162.5240936279297,815.8333333333334,1162.5240936279297,845C1162.5240936279297,874.1666666666666,1162.5240936279297,903.3333333333334,1162.5240936279297,932.5C1162.5240936279297,961.6666666666666,1162.5240936279297,990.8333333333334,1162.5240936279297,1020C1162.5240936279297,1049.1666666666667,1162.5240936279297,1078.3333333333333,1162.5240936279297,1107.5C1162.5240936279297,1136.6666666666667,1162.5240936279297,1165.8333333333333,1162.5240936279297,1188.75C1162.5240936279297,1211.6666666666667,1162.5240936279297,1228.3333333333333,1162.5240936279297,1236.6666666666667L1162.5240936279297,1245" class="er relationshipLine"/><path style="stroke: gray; fill: none;" marker-start="url(#ONLY_ONE_START)" marker-end="url(#ONE_OR_MORE_END)" d="M1001.7249412536621,795L1001.7249412536621,803.3333333333334C1001.7249412536621,811.6666666666666,1001.7249412536621,828.3333333333334,1001.7249412536621,845C1001.7249412536621,861.6666666666666,1001.7249412536621,878.3333333333334,1001.7249412536621,886.6666666666666L1001.7249412536621,895" class="er relationshipLine"/><path style="stroke: gray; fill: none;" marker-start="url(#ONLY_ONE_START)" marker-end="url(#ONLY_ONE_END)" d="M951.7249412536621,941.358709515401L877.7475649515787,954.4655912628341C803.7701886494955,967.5724730102673,655.8154360453287,993.7862365051336,576.308049701509,1015.2264515859001C496.80066335768925,1036.6666666666667,485.7406432742164,1053.3333333333333,480.21063323247995,1061.6666666666667L474.6806231907436,1070" class="er relationshipLine"/><path style="stroke: gray; fill: none;" marker-start="url(#ONLY_ONE_START)" marker-end="url(#ONE_OR_MORE_END)" d="M951.7249412536621,947.8079530280437L912.4250825246176,959.839960856703C873.1252237955729,971.8719686853625,794.5255063374838,995.9359843426813,750.4637428465344,1016.301325504674C706.401979355585,1036.6666666666667,696.8781698317756,1053.3333333333333,692.1162650698707,1061.6666666666667L687.354360307966,1070" class="er relationshipLine"/><path style="stroke: gray; fill: none;" marker-start="url(#ONLY_ONE_START)" marker-end="url(#ONE_OR_MORE_END)" d="M1162.5240936279297,1320L1162.5240936279297,1328.3333333333333C1162.5240936279297,1336.6666666666667,1162.5240936279297,1353.3333333333333,1192.738205273946,1373.0973195086501C1222.9523169199626,1392.861305683967,1283.3805402119954,1415.7226113679342,1313.594651858012,1427.1532642099173L1343.8087635040283,1438.583917051901" class="er relationshipLine"/><path style="stroke: gray; fill: none;" marker-start="url(#ONLY_ONE_START)" marker-end="url(#ONLY_ONE_END)" d="M1403.3198533739362,1495L1405.4334289005826,1503.3333333333333C1407.5470044272286,1511.6666666666667,1411.774155480521,1528.3333333333333,1413.8877310071673,1545C1416.0013065338135,1561.6666666666667,1416.0013065338135,1578.3333333333333,1416.0013065338135,1586.6666666666667L1416.0013065338135,1595" class="er relationshipLine"/><path style="stroke: gray; fill: none;" marker-start="url(#ONLY_ONE_START)" marker-end="url(#ONE_OR_MORE_END)" d="M1001.7249412536621,1495L1001.7249412536621,1503.3333333333333C1001.7249412536621,1511.6666666666667,1001.7249412536621,1528.3333333333333,1006.4868460155668,1545C1011.2487507774716,1561.6666666666667,1020.7725603012813,1578.3333333333333,1025.534465063186,1586.6666666666667L1030.2963698250908,1595" class="er relationshipLine"/><path style="stroke: gray; fill: none;" marker-start="url(#ONLY_ONE_START)" marker-end="url(#ONE_OR_MORE_END)" d="M1416.0013065338135,1670L1416.0013065338135,1678.3333333333333C1416.0013065338135,1686.6666666666667,1416.0013065338135,1703.3333333333333,1424.581012816656,1720C1433.160719099499,1736.6666666666667,1450.3201316651841,1753.3333333333333,1458.8998379480272,1761.6666666666667L1467.4795442308698,1770" class="er relationshipLine"/><path style="stroke: gray; fill: none;" marker-start="url(#ONLY_ONE_START)" marker-end="url(#ONE_OR_MORE_END)" d="M1343.8087635040283,1474.034466479443L1308.0422967274983,1485.8620553995358C1272.2758299509685,1497.6896443196285,1200.7428963979085,1521.3448221598144,1157.5969037555512,1541.5057444132406C1114.450911113194,1561.6666666666667,1099.6918593815394,1578.3333333333333,1092.3123335157122,1586.6666666666667L1084.9328076498848,1595" class="er relationshipLine"/><path style="stroke: gray; fill: none;" marker-start="url(#ONLY_ONE_START)" marker-end="url(#ONLY_ONE_END)" d="M1413.9123017447334,1245L1418.6742065066383,1236.6666666666667C1423.436111268543,1228.3333333333333,1432.9599207923527,1211.6666666666667,1437.7218255542575,1188.75C1442.483730316162,1165.8333333333333,1442.483730316162,1136.6666666666667,1442.483730316162,1107.5C1442.483730316162,1078.3333333333333,1442.483730316162,1049.1666666666667,1377.357265472412,1021.6543440193618C1312.230800628662,994.1420213720568,1181.977870941162,968.2840427441137,1116.851406097412,955.3550534301421L1051.724941253662,942.4260641161704" class="er relationshipLine"/><path style="stroke: gray; fill: none;" marker-start="url(#ONLY_ONE_START)" marker-end="url(#ONE_OR_MORE_END)" d="M1051.724941253662,939.515909980433L1147.3220558166504,952.9299249836941C1242.9191703796387,966.3439399869553,1434.1133995056152,993.1719699934778,1529.7105140686035,1014.9193183300722C1625.3076286315918,1036.6666666666667,1625.3076286315918,1053.3333333333333,1625.3076286315918,1061.6666666666667L1625.3076286315918,1070" class="er relationshipLine"/><path style="stroke: gray; fill: none;" marker-start="url(#ONLY_ONE_START)" marker-end="url(#ONE_OR_MORE_END)" d="M1051.724941253662,937.9253029149536L1177.7927055358887,951.6044190957946C1303.8604698181152,965.2835352766357,1555.9959983825684,992.6417676383179,1682.063762664795,1020.9042171524922C1808.1315269470215,1049.1666666666667,1808.1315269470215,1078.3333333333333,1808.1315269470215,1107.5C1808.1315269470215,1136.6666666666667,1808.1315269470215,1165.8333333333333,1808.1315269470215,1195C1808.1315269470215,1224.1666666666667,1808.1315269470215,1253.3333333333333,1808.1315269470215,1282.5C1808.1315269470215,1311.6666666666667,1808.1315269470215,1340.8333333333333,1808.1315269470215,1370C1808.1315269470215,1399.1666666666667,1808.1315269470215,1428.3333333333333,1808.1315269470215,1457.5C1808.1315269470215,1486.6666666666667,1808.1315269470215,1515.8333333333333,1808.1315269470215,1545C1808.1315269470215,1574.1666666666667,1808.1315269470215,1603.3333333333333,1808.1315269470215,1632.5C1808.1315269470215,1661.6666666666667,1808.1315269470215,1690.8333333333333,1779.365497952416,1713.75C1750.5994689578101,1736.6666666666667,1693.0674109685988,1753.3333333333333,1664.3013819739933,1761.6666666666667L1635.5353529793877,1770" class="er relationshipLine"/><path style="stroke: gray; fill: none;" marker-start="url(#ONLY_ONE_START)" marker-end="url(#ONLY_ONE_END)" d="M1443.8087635040283,1463.1847344223734L1563.7429291407268,1476.8206120186444C1683.677094777425,1490.4564896149157,1923.545426050822,1517.7282448074577,2043.4795916875203,1539.6974557370622C2163.4137573242188,1561.6666666666667,2163.4137573242188,1578.3333333333333,2163.4137573242188,1586.6666666666667L2163.4137573242188,1595" class="er relationshipLine"/><path style="stroke: gray; fill: none;" marker-start="url(#ONLY_ONE_START)" marker-end="url(#ONE_OR_MORE_END)" d="M1708.1315269470215,1129.85887110584L1748.3485412597656,1140.7157259215335C1788.5655555725098,1151.5725807372266,1868.999584197998,1173.2862903686134,1913.978503272647,1192.47647851764C1958.9574223472957,1211.6666666666667,1968.4812318711054,1228.3333333333333,1973.2431366330102,1236.6666666666667L1978.005041394915,1245" class="er relationshipLine"/><path style="stroke: gray; fill: none;" marker-start="url(#ONLY_ONE_START)" marker-end="url(#ONE_OR_MORE_END)" d="M609.0084686279297,237.5001939900165L849.0793259938558,251.25016165834708C1089.150183359782,265.00012932667767,1569.291898091634,292.50006466333883,1809.3627554575603,320.83336566500276C2049.4336128234863,349.1666666666667,2049.4336128234863,378.3333333333333,2049.4336128234863,407.5C2049.4336128234863,436.6666666666667,2049.4336128234863,465.8333333333333,2049.4336128234863,495C2049.4336128234863,524.1666666666666,2049.4336128234863,553.3333333333334,2049.4336128234863,582.5C2049.4336128234863,611.6666666666666,2049.4336128234863,640.8333333333334,2049.4336128234863,670C2049.4336128234863,699.1666666666666,2049.4336128234863,728.3333333333334,2049.4336128234863,757.5C2049.4336128234863,786.6666666666666,2049.4336128234863,815.8333333333334,2049.4336128234863,845C2049.4336128234863,874.1666666666666,2049.4336128234863,903.3333333333334,2049.4336128234863,932.5C2049.4336128234863,961.6666666666666,2049.4336128234863,990.8333333333334,2049.4336128234863,1020C2049.4336128234863,1049.1666666666667,2049.4336128234863,1078.3333333333333,2049.4336128234863,1107.5C2049.4336128234863,1136.6666666666667,2049.4336128234863,1165.8333333333333,2044.6717080615815,1188.75C2039.909803299677,1211.6666666666667,2030.3859937758673,1228.3333333333333,2025.6240890139625,1236.6666666666667L2020.8621842520577,1245" class="er relationshipLine"/><path style="stroke: gray; fill: none;" marker-start="url(#ONLY_ONE_START)" marker-end="url(#ONE_OR_MORE_END)" d="M1999.4336128234863,1320L1999.4336128234863,1328.3333333333333C1999.4336128234863,1336.6666666666667,1999.4336128234863,1353.3333333333333,1999.4336128234863,1376.25C1999.4336128234863,1399.1666666666667,1999.4336128234863,1428.3333333333333,1999.4336128234863,1457.5C1999.4336128234863,1486.6666666666667,1999.4336128234863,1515.8333333333333,1999.4336128234863,1545C1999.4336128234863,1574.1666666666667,1999.4336128234863,1603.3333333333333,1999.4336128234863,1632.5C1999.4336128234863,1661.6666666666667,1999.4336128234863,1690.8333333333333,2007.242191133045,1713.75C2015.050769442604,1736.6666666666667,2030.6679260617211,1753.3333333333333,2038.4765043712798,1761.6666666666667L2046.2850826808385,1770" class="er relationshipLine"/><path style="stroke: gray; fill: none;" marker-start="url(#ONLY_ONE_START)" marker-end="url(#ONE_OR_MORE_END)" d="M2163.4137573242188,1670L2163.4137573242188,1678.3333333333333C2163.4137573242188,1686.6666666666667,2163.4137573242188,1703.3333333333333,2155.60517901466,1720C2147.7966007051014,1736.6666666666667,2132.179444085984,1753.3333333333333,2124.370865776425,1761.6666666666667L2116.5622874668666,1770" class="er relationshipLine"/><path style="stroke: gray; fill: none;" marker-start="url(#ONLY_ONE_START)" marker-end="url(#ONLY_ONE_END)" d="M1542.483730316162,1131.835126451377L1506.6537605921428,1142.3626053761475C1470.8237908681233,1152.890084300918,1399.1638514200847,1173.945042150459,1369.5224358240764,1192.8058544085627C1339.881020228068,1211.6666666666667,1352.25812848409,1228.3333333333333,1358.4466826121013,1236.6666666666667L1364.6352367401123,1245" class="er relationshipLine"/><path style="stroke: gray; fill: none;" marker-start="url(#ONLY_ONE_START)" marker-end="url(#ONLY_ONE_END)" d="M1392.483730316162,1320L1392.483730316162,1328.3333333333333C1392.483730316162,1336.6666666666667,1392.483730316162,1353.3333333333333,1392.6099239531015,1370C1392.7361175900414,1386.6666666666667,1392.9885048639208,1403.3333333333333,1393.1146985008602,1411.6666666666667L1393.2408921377998,1420" class="er relationshipLine"/><path style="stroke: gray; fill: none;" marker-start="url(#ONLY_ONE_START)" marker-end="url(#ONE_OR_MORE_END)" d="M1443.8087635040283,1438.6014192333546L1474.0585743586223,1427.167849361129C1504.308385213216,1415.734279488903,1564.808006922404,1392.8671397444516,1595.0578177769978,1366.8502365388924C1625.3076286315918,1340.8333333333333,1625.3076286315918,1311.6666666666667,1625.3076286315918,1282.5C1625.3076286315918,1253.3333333333333,1625.3076286315918,1224.1666666666667,1625.3076286315918,1201.25C1625.3076286315918,1178.3333333333333,1625.3076286315918,1161.6666666666667,1625.3076286315918,1153.3333333333333L1625.3076286315918,1145" class="er relationshipLine"/><path style="stroke: gray; fill: none;" marker-start="url(#ONLY_ONE_START)" marker-end="url(#ONLY_ONE_END)" d="M1001.7249412536621,970L1001.7249412536621,978.3333333333334C1001.7249412536621,986.6666666666666,1001.7249412536621,1003.3333333333334,1001.7249412536621,1026.25C1001.7249412536621,1049.1666666666667,1001.7249412536621,1078.3333333333333,1001.7249412536621,1107.5C1001.7249412536621,1136.6666666666667,1001.7249412536621,1165.8333333333333,1001.7249412536621,1195C1001.7249412536621,1224.1666666666667,1001.7249412536621,1253.3333333333333,1001.7249412536621,1282.5C1001.7249412536621,1311.6666666666667,1001.7249412536621,1340.8333333333333,1001.7249412536621,1363.75C1001.7249412536621,1386.6666666666667,1001.7249412536621,1403.3333333333333,1001.7249412536621,1411.6666666666667L1001.7249412536621,1420" class="er relationshipLine"/><g transform="translate(403.3483123779297,20 )" id="entity-INFORMATIONFEDERATIONOPERATOR-91c20ad5-7680-5009-b7cf-87f6790e7a57"><rect height="75" width="236.71615600585938" y="0" x="0" class="er entityBox"/><text style="dominant-baseline: middle; text-anchor: middle; font-size: 12px;" transform="translate(118.35807800292969,37.5)" y="0" x="0" id="text-entity-INFORMATIONFEDERATIONOPERATOR-91c20ad5-7680-5009-b7cf-87f6790e7a57" class="er entityLabel">INFORMATION_FEDERATION_OPERATOR</text></g><g transform="translate(434.404296875,195 )" id="entity-INFORMATIONFEDERATION-d4563019-abcb-533c-b7bc-b44658761aaf"><rect height="75" width="174.6041717529297" y="0" x="0" class="er entityBox"/><text style="dominant-baseline: middle; text-anchor: middle; font-size: 12px;" transform="translate(87.30208587646484,37.5)" y="0" x="0" id="text-entity-INFORMATIONFEDERATION-d4563019-abcb-533c-b7bc-b44658761aaf" class="er entityLabel">INFORMATION_FEDERATION</text></g><g transform="translate(196.80860137939453,370 )" id="entity-INFORMATIONFEDERATIONMEMBER-2d30d385-a09f-5e69-8bbf-a4ea4b363362"><rect height="75" width="224.89779663085938" y="0" x="0" class="er entityBox"/><text style="dominant-baseline: middle; text-anchor: middle; font-size: 12px;" transform="translate(112.44889831542969,37.5)" y="0" x="0" id="text-entity-INFORMATIONFEDERATIONMEMBER-2d30d385-a09f-5e69-8bbf-a4ea4b363362" class="er entityLabel">INFORMATION_FEDERATION_MEMBER</text></g><g transform="translate(414.4615936279297,895 )" id="entity-INTEROPERABILITYSPECIFICATION-64eaf242-a2bd-5031-a0de-9052f93d9070"><rect height="75" width="214.48959350585938" y="0" x="0" class="er entityBox"/><text style="dominant-baseline: middle; text-anchor: middle; font-size: 12px;" transform="translate(107.24479675292969,37.5)" y="0" x="0" id="text-entity-INTEROPERABILITYSPECIFICATION-64eaf242-a2bd-5031-a0de-9052f93d9070" class="er entityLabel">INTEROPERABILITY_SPECIFICATION</text></g><g transform="translate(383.66536712646484,1070 )" id="entity-APISPECIFICATION-7d5e5af8-a167-56c3-9a5c-3e8cec9c7774"><rect height="75" width="132.2604217529297" y="0" x="0" class="er entityBox"/><text style="dominant-baseline: middle; text-anchor: middle; font-size: 12px;" transform="translate(66.13021087646484,37.5)" y="0" x="0" id="text-entity-APISPECIFICATION-7d5e5af8-a167-56c3-9a5c-3e8cec9c7774" class="er entityLabel">API_SPECIFICATION</text></g><g transform="translate(615.9257888793945,1070 )" id="entity-SERVICE-9e7e25d4-6c7d-5936-bea4-5c3379ed66bc"><rect height="75" width="100" y="0" x="0" class="er entityBox"/><text style="dominant-baseline: middle; text-anchor: middle; font-size: 12px;" transform="translate(50,37.5)" y="0" x="0" id="text-entity-SERVICE-9e7e25d4-6c7d-5936-bea4-5c3379ed66bc" class="er entityLabel">SERVICE</text></g><g transform="translate(20,720 )" id="entity-ORGANISATION-18f6046c-38eb-5437-9766-842201da3913"><rect height="75" width="109" y="0" x="0" class="er entityBox"/><text style="dominant-baseline: middle; text-anchor: middle; font-size: 12px;" transform="translate(54.5,37.5)" y="0" x="0" id="text-entity-ORGANISATION-18f6046c-38eb-5437-9766-842201da3913" class="er entityLabel">ORGANISATION</text></g><g transform="translate(224.5,545 )" id="entity-ORGANISATIONMETADATA-4b154320-1f43-5825-91e3-0d1e71767082"><rect height="75" width="169.51498413085938" y="0" x="0" class="er entityBox"/><text style="dominant-baseline: middle; text-anchor: middle; font-size: 12px;" transform="translate(84.75749206542969,37.5)" y="0" x="0" id="text-entity-ORGANISATIONMETADATA-4b154320-1f43-5825-91e3-0d1e71767082" class="er entityLabel">ORGANISATION_METADATA</text></g><g transform="translate(988.9527969360352,545 )" id="entity-INFORMATIONFEDERATIONROLE-3891ac24-8cca-5bbf-a9bd-33c02f6e50e5"><rect height="75" width="208.7037811279297" y="0" x="0" class="er entityBox"/><text style="dominant-baseline: middle; text-anchor: middle; font-size: 12px;" transform="translate(104.35189056396484,37.5)" y="0" x="0" id="text-entity-INFORMATIONFEDERATIONROLE-3891ac24-8cca-5bbf-a9bd-33c02f6e50e5" class="er entityLabel">INFORMATION_FEDERATION_ROLE</text></g><g transform="translate(1366.541347503662,1770 )" id="entity-INFORMATIONFEDERATIONMEMBERCATALOG-d626ca60-0254-547f-84fa-b30eca33afff"><rect height="75" width="279.09375" y="0" x="0" class="er entityBox"/><text style="dominant-baseline: middle; text-anchor: middle; font-size: 12px;" transform="translate(139.546875,37.5)" y="0" x="0" id="text-entity-INFORMATIONFEDERATIONMEMBERCATALOG-d626ca60-0254-547f-84fa-b30eca33afff" class="er entityLabel">INFORMATION_FEDERATION_MEMBER_CATALOG</text></g><g transform="translate(940.9257888793945,720 )" id="entity-PRODUCERROLE-c07090a4-8278-5d27-a9ea-57b5fa6542f4"><rect height="75" width="121.59831237792969" y="0" x="0" class="er entityBox"/><text style="dominant-baseline: middle; text-anchor: middle; font-size: 12px;" transform="translate(60.799156188964844,37.5)" y="0" x="0" id="text-entity-PRODUCERROLE-c07090a4-8278-5d27-a9ea-57b5fa6542f4" class="er entityLabel">PRODUCER_ROLE</text></g><g transform="translate(1111.647792816162,1245 )" id="entity-CLIENTROLE-77332628-9aa5-5879-86ac-ad262e499965"><rect height="75" width="101.75260925292969" y="0" x="0" class="er entityBox"/><text style="dominant-baseline: middle; text-anchor: middle; font-size: 12px;" transform="translate(50.876304626464844,37.5)" y="0" x="0" id="text-entity-CLIENTROLE-77332628-9aa5-5879-86ac-ad262e499965" class="er entityLabel">CLIENT_ROLE</text></g><g transform="translate(951.7249412536621,895 )" id="entity-API-35da98ab-da40-5773-8d4f-7f4d05629c84"><rect height="75" width="100" y="0" x="0" class="er entityBox"/><text style="dominant-baseline: middle; text-anchor: middle; font-size: 12px;" transform="translate(50,37.5)" y="0" x="0" id="text-entity-API-35da98ab-da40-5773-8d4f-7f4d05629c84" class="er entityLabel">API</text></g><g transform="translate(1343.8087635040283,1420 )" id="entity-APICLIENT-7ddc0dda-3673-5663-befa-eb82baf3f28f"><rect height="75" width="100" y="0" x="0" class="er entityBox"/><text style="dominant-baseline: middle; text-anchor: middle; font-size: 12px;" transform="translate(50,37.5)" y="0" x="0" id="text-entity-APICLIENT-7ddc0dda-3673-5663-befa-eb82baf3f28f" class="er entityLabel">API_CLIENT</text></g><g transform="translate(1339.8841190338135,1595 )" id="entity-APICLIENTMETADATA-5e6b04ef-628f-5db3-a658-2e7dfc94e525"><rect height="75" width="152.234375" y="0" x="0" class="er entityBox"/><text style="dominant-baseline: middle; text-anchor: middle; font-size: 12px;" transform="translate(76.1171875,37.5)" y="0" x="0" id="text-entity-APICLIENTMETADATA-5e6b04ef-628f-5db3-a658-2e7dfc94e525" class="er entityLabel">API_CLIENT_METADATA</text></g><g transform="translate(947.5774803161621,1420 )" id="entity-APIMETADATA-293744dd-d2af-5749-83b2-d33322edc09e"><rect height="75" width="108.294921875" y="0" x="0" class="er entityBox"/><text style="dominant-baseline: middle; text-anchor: middle; font-size: 12px;" transform="translate(54.1474609375,37.5)" y="0" x="0" id="text-entity-APIMETADATA-293744dd-d2af-5749-83b2-d33322edc09e" class="er entityLabel">API_METADATA</text></g><g transform="translate(1000.5634841918945,1595 )" id="entity-APICATALOG-8c0c2fd0-93d1-5fb3-a80a-1def76ffc736"><rect height="75" width="102.32292175292969" y="0" x="0" class="er entityBox"/><text style="dominant-baseline: middle; text-anchor: middle; font-size: 12px;" transform="translate(51.161460876464844,37.5)" y="0" x="0" id="text-entity-APICATALOG-8c0c2fd0-93d1-5fb3-a80a-1def76ffc736" class="er entityLabel">API_CATALOG</text></g><g transform="translate(1313.4003944396973,1245 )" id="entity-AUTHORISATIONTOKEN-1679085b-d6e1-5cb7-a806-7f8086a8a916"><rect height="75" width="158.1666717529297" y="0" x="0" class="er entityBox"/><text style="dominant-baseline: middle; text-anchor: middle; font-size: 12px;" transform="translate(79.08333587646484,37.5)" y="0" x="0" id="text-entity-AUTHORISATIONTOKEN-1679085b-d6e1-5cb7-a806-7f8086a8a916" class="er entityLabel">AUTHORISATION_TOKEN</text></g><g transform="translate(1542.483730316162,1070 )" id="entity-AUTHORISATIONSERVICE-ec383e00-28ad-5ad2-ae01-d21235104e3f"><rect height="75" width="165.64779663085938" y="0" x="0" class="er entityBox"/><text style="dominant-baseline: middle; text-anchor: middle; font-size: 12px;" transform="translate(82.82389831542969,37.5)" y="0" x="0" id="text-entity-AUTHORISATIONSERVICE-ec383e00-28ad-5ad2-ae01-d21235104e3f" class="er entityLabel">AUTHORISATION_SERVICE</text></g><g transform="translate(2099.4336128234863,1595 )" id="entity-DIGTIALIDENTITY-98422c68-ed56-5d60-b0e9-67c8e471831b"><rect height="75" width="127.96028900146484" y="0" x="0" class="er entityBox"/><text style="dominant-baseline: middle; text-anchor: middle; font-size: 12px;" transform="translate(63.98014450073242,37.5)" y="0" x="0" id="text-entity-DIGTIALIDENTITY-98422c68-ed56-5d60-b0e9-67c8e471831b" class="er entityLabel">DIGTIAL_IDENTITY</text></g><g transform="translate(1916.8294410705566,1245 )" id="entity-CERTIFICATEAUTHORITY-5f442d42-2b85-5e58-a8c1-d4502cdbf448"><rect height="75" width="165.20834350585938" y="0" x="0" class="er entityBox"/><text style="dominant-baseline: middle; text-anchor: middle; font-size: 12px;" transform="translate(82.60417175292969,37.5)" y="0" x="0" id="text-entity-CERTIFICATEAUTHORITY-5f442d42-2b85-5e58-a8c1-d4502cdbf448" class="er entityLabel">CERTIFICATE_AUTHORITY</text></g><g transform="translate(2031.4236850738525,1770 )" id="entity-CERTIFICATE-a6b527d1-b300-5267-8ed8-4b0669c24606"><rect height="75" width="100" y="0" x="0" class="er entityBox"/><text style="dominant-baseline: middle; text-anchor: middle; font-size: 12px;" transform="translate(50,37.5)" y="0" x="0" id="text-entity-CERTIFICATE-a6b527d1-b300-5267-8ed8-4b0669c24606" class="er entityLabel">CERTIFICATE</text></g><rect height="14" width="43.19791793823242" y="138" x="500.10740089416504" class="er relationshipLabelBox"/><text style="text-anchor: middle; dominant-baseline: middle; font-size: 12px;" y="145" x="521.7063598632812" id="rel1" class="er relationshipLabel">controls</text><rect height="14" width="45.030601501464844" y="296.7278747558594" x="332.6252326965332" class="er relationshipLabelBox"/><text style="text-anchor: middle; dominant-baseline: middle; font-size: 12px;" y="303.7278747558594" x="355.1405334472656" id="rel2" class="er relationshipLabel">member</text><rect height="14" width="46.75065231323242" y="575.5" x="498.33103370666504" class="er relationshipLabelBox"/><text style="text-anchor: middle; dominant-baseline: middle; font-size: 12px;" y="582.5" x="521.7063598632812" id="rel3" class="er relationshipLabel">refers to</text><rect height="14" width="46.75065231323242" y="1004.1864624023438" x="397.8204746246338" class="er relationshipLabelBox"/><text style="text-anchor: middle; dominant-baseline: middle; font-size: 12px;" y="1011.1864624023438" x="421.19580078125" id="rel4" class="er relationshipLabel">refers to</text><rect height="14" width="39.052085876464844" y="1008.9389038085938" x="588.7611274719238" class="er relationshipLabelBox"/><text style="text-anchor: middle; dominant-baseline: middle; font-size: 12px;" y="1015.9389038085938" x="608.2871704101562" id="rel5" class="er relationshipLabel">defines</text><rect height="14" width="8.28125" y="551.8933715820312" x="120.71058654785156" class="er relationshipLabelBox"/><text style="text-anchor: middle; dominant-baseline: middle; font-size: 12px;" y="558.8933715820312" x="124.85121154785156" id="rel6" class="er relationshipLabel">is</text><rect height="14" width="68.99870300292969" y="488" x="274.7581558227539" class="er relationshipLabelBox"/><text style="text-anchor: middle; dominant-baseline: middle; font-size: 12px;" y="495" x="309.25750732421875" id="rel7" class="er relationshipLabel">described by</text><rect height="14" width="46.19987106323242" y="452.989501953125" x="745.8083896636963" class="er relationshipLabelBox"/><text style="text-anchor: middle; dominant-baseline: middle; font-size: 12px;" y="459.989501953125" x="768.9083251953125" id="rel8" class="er relationshipLabel">can take</text><rect height="14" width="68.99870300292969" y="637.8324584960938" x="78.28302764892578" class="er relationshipLabelBox"/><text style="text-anchor: middle; dominant-baseline: middle; font-size: 12px;" y="644.8324584960938" x="112.78237915039062" id="rel9" class="er relationshipLabel">described by</text><rect height="14" width="55.40494918823242" y="1224.9534912109375" x="813.2233066558838" class="er relationshipLabelBox"/><text style="text-anchor: middle; dominant-baseline: middle; font-size: 12px;" y="1231.9534912109375" x="840.92578125" id="rel10" class="er relationshipLabel">is listed in</text><rect height="14" width="35.77018356323242" y="656.4165649414062" x="996.4331455230713" class="er relationshipLabelBox"/><text style="text-anchor: middle; dominant-baseline: middle; font-size: 12px;" y="663.4165649414062" x="1014.3182373046875" id="rel11" class="er relationshipLabel">can be</text><rect height="14" width="35.77018356323242" y="920.5162353515625" x="1144.6389560699463" class="er relationshipLabelBox"/><text style="text-anchor: middle; dominant-baseline: middle; font-size: 12px;" y="927.5162353515625" x="1162.5240478515625" id="rel12" class="er relationshipLabel">can be</text><rect height="14" width="22.822917938232422" y="838" x="990.313455581665" class="er relationshipLabelBox"/><text style="text-anchor: middle; dominant-baseline: middle; font-size: 12px;" y="845" x="1001.7249145507812" id="rel13" class="er relationshipLabel">uses</text><rect height="14" width="76.68620300292969" y="979.4232177734375" x="666.7789077758789" class="er relationshipLabelBox"/><text style="text-anchor: middle; dominant-baseline: middle; font-size: 12px;" y="986.4232177734375" x="705.1220092773438" id="rel14" class="er relationshipLabel">conforms with</text><rect height="14" width="77.06380462646484" y="985.9112548828125" x="771.4640083312988" class="er relationshipLabelBox"/><text style="text-anchor: middle; dominant-baseline: middle; font-size: 12px;" y="992.9112548828125" x="809.9959106445312" id="rel15" class="er relationshipLabel">can be part of</text><rect height="14" width="22.822917938232422" y="1389.18505859375" x="1225.5735263824463" class="er relationshipLabelBox"/><text style="text-anchor: middle; dominant-baseline: middle; font-size: 12px;" y="1396.18505859375" x="1236.9849853515625" id="rel16" class="er relationshipLabel">uses</text><rect height="14" width="68.99870300292969" y="1537.4755859375" x="1379.3198623657227" class="er relationshipLabelBox"/><text style="text-anchor: middle; dominant-baseline: middle; font-size: 12px;" y="1544.4755859375" x="1413.8192138671875" id="rel17" class="er relationshipLabel">described by</text><rect height="14" width="68.41276550292969" y="1540.4471435546875" x="973.0133438110352" class="er relationshipLabelBox"/><text style="text-anchor: middle; dominant-baseline: middle; font-size: 12px;" y="1547.4471435546875" x="1007.2197265625" id="rel18" class="er relationshipLabel">registered in</text><rect height="14" width="68.41276550292969" y="1719.429931640625" x="1394.0860977172852" class="er relationshipLabelBox"/><text style="text-anchor: middle; dominant-baseline: middle; font-size: 12px;" y="1726.429931640625" x="1428.29248046875" id="rel19" class="er relationshipLabel">registered in</text><rect height="14" width="22.822917938232422" y="1514.04931640625" x="1195.6290683746338" class="er relationshipLabelBox"/><text style="text-anchor: middle; dominant-baseline: middle; font-size: 12px;" y="1521.04931640625" x="1207.04052734375" id="rel20" class="er relationshipLabel">uses</text><rect height="14" width="86.26628112792969" y="1001.702392578125" x="1298.7427139282227" class="er relationshipLabelBox"/><text style="text-anchor: middle; dominant-baseline: middle; font-size: 12px;" y="1008.702392578125" x="1341.8758544921875" id="rel21" class="er relationshipLabel">grants access to</text><rect height="14" width="46.75065231323242" y="975.6906127929688" x="1327.2798252105713" class="er relationshipLabelBox"/><text style="text-anchor: middle; dominant-baseline: middle; font-size: 12px;" y="982.6906127929688" x="1350.6551513671875" id="rel22" class="er relationshipLabel">refers to</text><rect height="14" width="212.64389038085938" y="1083.809326171875" x="1700.9324493408203" class="er relationshipLabelBox"/><text style="text-anchor: middle; dominant-baseline: middle; font-size: 12px;" y="1090.809326171875" x="1807.25439453125" id="rel23" class="er relationshipLabel">check that clients are members against</text><rect height="14" width="17.71875" y="1499.5540771484375" x="1806.020751953125" class="er relationshipLabelBox"/><text style="text-anchor: middle; dominant-baseline: middle; font-size: 12px;" y="1506.5540771484375" x="1814.880126953125" id="rel24" class="er relationshipLabel">has</text><rect height="14" width="30.45833396911621" y="1163.5858154296875" x="1837.3610429763794" class="er relationshipLabelBox"/><text style="text-anchor: middle; dominant-baseline: middle; font-size: 12px;" y="1170.5858154296875" x="1852.5902099609375" id="rel25" class="er relationshipLabel">trusts</text><rect height="14" width="40.6875" y="308.9438781738281" x="1745.1868896484375" class="er relationshipLabelBox"/><text style="text-anchor: middle; dominant-baseline: middle; font-size: 12px;" y="315.9438781738281" x="1765.5306396484375" id="rel26" class="er relationshipLabel">decides</text><rect height="14" width="31.104167938232422" y="1544.78076171875" x="1983.8815097808838" class="er relationshipLabelBox"/><text style="text-anchor: middle; dominant-baseline: middle; font-size: 12px;" y="1551.78076171875" x="1999.43359375" id="rel27" class="er relationshipLabel">issues</text><rect height="14" width="93.91276550292969" y="1718.5953369140625" x="2105.748695373535" class="er relationshipLabelBox"/><text style="text-anchor: middle; dominant-baseline: middle; font-size: 12px;" y="1725.5953369140625" x="2152.705078125" id="rel28" class="er relationshipLabel">is represented by</text><rect height="14" width="31.104167938232422" y="1161.509521484375" x="1408.6594638824463" class="er relationshipLabelBox"/><text style="text-anchor: middle; dominant-baseline: middle; font-size: 12px;" y="1168.509521484375" x="1424.2115478515625" id="rel29" class="er relationshipLabel">issues</text><rect height="14" width="59.85807418823242" y="1363.001953125" x="1362.6808261871338" class="er relationshipLabelBox"/><text style="text-anchor: middle; dominant-baseline: middle; font-size: 12px;" y="1370.001953125" x="1392.60986328125" id="rel30" class="er relationshipLabel">is issued to</text><rect height="14" width="24.1875" y="1335.8194580078125" x="1602.7568359375" class="er relationshipLabelBox"/><text style="text-anchor: middle; dominant-baseline: middle; font-size: 12px;" y="1342.8194580078125" x="1614.8505859375" id="rel31" class="er relationshipLabel">calls</text><rect height="14" width="68.99870300292969" y="1188" x="967.2255630493164" class="er relationshipLabelBox"/><text style="text-anchor: middle; dominant-baseline: middle; font-size: 12px;" y="1195" x="1001.7249145507812" id="rel32" class="er relationshipLabel">described by</text></svg>