<svg aria-roledescription="er" role="graphics-document document" viewBox="-120.5234375 0 1576.25390625 1539" style="max-width: 1576.25px; background-color: rgb(255, 255, 255);" xmlns:xlink="http://www.w3.org/1999/xlink" xmlns="http://www.w3.org/2000/svg" width="100%" id="mermaid-1693474141530"><style>#mermaid-1693474141530{font-family:"trebuchet ms",verdana,arial,sans-serif;font-size:16px;fill:#000000;}#mermaid-1693474141530 .error-icon{fill:#552222;}#mermaid-1693474141530 .error-text{fill:#552222;stroke:#552222;}#mermaid-1693474141530 .edge-thickness-normal{stroke-width:2px;}#mermaid-1693474141530 .edge-thickness-thick{stroke-width:3.5px;}#mermaid-1693474141530 .edge-pattern-solid{stroke-dasharray:0;}#mermaid-1693474141530 .edge-pattern-dashed{stroke-dasharray:3;}#mermaid-1693474141530 .edge-pattern-dotted{stroke-dasharray:2;}#mermaid-1693474141530 .marker{fill:#000000;stroke:#000000;}#mermaid-1693474141530 .marker.cross{stroke:#000000;}#mermaid-1693474141530 svg{font-family:"trebuchet ms",verdana,arial,sans-serif;font-size:16px;}#mermaid-1693474141530 .entityBox{fill:#cde498;stroke:#13540c;}#mermaid-1693474141530 .attributeBoxOdd{fill:#ffffff;stroke:#13540c;}#mermaid-1693474141530 .attributeBoxEven{fill:#f2f2f2;stroke:#13540c;}#mermaid-1693474141530 .relationshipLabelBox{fill:hsl(78.1578947368, 58.4615384615%, 84.5098039216%);opacity:0.7;background-color:hsl(78.1578947368, 58.4615384615%, 84.5098039216%);}#mermaid-1693474141530 .relationshipLabelBox rect{opacity:0.5;}#mermaid-1693474141530 .relationshipLine{stroke:#000000;}#mermaid-1693474141530 .entityTitleText{text-anchor:middle;font-size:18px;fill:#000000;}#mermaid-1693474141530 :root{--mermaid-font-family:"trebuchet ms",verdana,arial,sans-serif;}</style><g/><defs><marker orient="auto" markerHeight="18" markerWidth="18" refY="9" refX="0" id="ONLY_ONE_START"><path d="M9,0 L9,18 M15,0 L15,18" fill="none" stroke="gray"/></marker></defs><defs><marker orient="auto" markerHeight="18" markerWidth="18" refY="9" refX="18" id="ONLY_ONE_END"><path d="M3,0 L3,18 M9,0 L9,18" fill="none" stroke="gray"/></marker></defs><defs><marker orient="auto" markerHeight="18" markerWidth="30" refY="9" refX="0" id="ZERO_OR_ONE_START"><circle r="6" cy="9" cx="21" fill="white" stroke="gray"/><path d="M9,0 L9,18" fill="none" stroke="gray"/></marker></defs><defs><marker orient="auto" markerHeight="18" markerWidth="30" refY="9" refX="30" id="ZERO_OR_ONE_END"><circle r="6" cy="9" cx="9" fill="white" stroke="gray"/><path d="M21,0 L21,18" fill="none" stroke="gray"/></marker></defs><defs><marker orient="auto" markerHeight="36" markerWidth="45" refY="18" refX="18" id="ONE_OR_MORE_START"><path d="M0,18 Q 18,0 36,18 Q 18,36 0,18 M42,9 L42,27" fill="none" stroke="gray"/></marker></defs><defs><marker orient="auto" markerHeight="36" markerWidth="45" refY="18" refX="27" id="ONE_OR_MORE_END"><path d="M3,9 L3,27 M9,18 Q27,0 45,18 Q27,36 9,18" fill="none" stroke="gray"/></marker></defs><defs><marker orient="auto" markerHeight="36" markerWidth="57" refY="18" refX="18" id="ZERO_OR_MORE_START"><circle r="6" cy="18" cx="48" fill="white" stroke="gray"/><path d="M0,18 Q18,0 36,18 Q18,36 0,18" fill="none" stroke="gray"/></marker></defs><defs><marker orient="auto" markerHeight="36" markerWidth="57" refY="18" refX="39" id="ZERO_OR_MORE_END"><circle r="6" cy="18" cx="9" fill="white" stroke="gray"/><path d="M21,18 Q39,0 57,18 Q39,36 21,18" fill="none" stroke="gray"/></marker></defs><path style="stroke: gray; fill: none;" marker-start="url(#ONLY_ONE_START)" marker-end="url(#ONE_OR_MORE_END)" d="M1214.5859375,530L1214.5859375,543.8333333333334C1214.5859375,557.6666666666666,1214.5859375,585.3333333333334,1214.5859375,607.5C1214.5859375,629.6666666666666,1214.5859375,646.3333333333334,1214.5859375,654.6666666666666L1214.5859375,663" class="er relationshipLine"/><path style="stroke: gray; fill: none;" marker-start="url(#ONLY_ONE_START)" marker-end="url(#ONLY_ONE_END)" d="M985.1969866071429,994L969.9043898809524,1002.3333333333334C954.6117931547619,1010.6666666666666,924.0265997023811,1027.3333333333333,895.3831845238096,1044C866.7397693452381,1060.6666666666667,840.0381324404761,1077.3333333333333,826.6873139880953,1085.6666666666667L813.3364955357143,1094" class="er relationshipLine"/><path style="stroke: gray; fill: none;" marker-start="url(#ONLY_ONE_START)" marker-end="url(#ONLY_ONE_END)" d="M1214.5859375,819L1214.5859375,827.3333333333334C1214.5859375,835.6666666666666,1214.5859375,852.3333333333334,1199.2933407738094,869C1184.000744047619,885.6666666666666,1153.415550595238,902.3333333333334,1138.1229538690475,910.6666666666666L1122.830357142857,919" class="er relationshipLine"/><path style="stroke: gray; fill: none;" marker-start="url(#ONLY_ONE_START)" marker-end="url(#ONE_OR_MORE_END)" d="M1075.4422433035713,994L1080.2041480654761,1002.3333333333334C1084.966052827381,1010.6666666666666,1094.4898623511906,1027.3333333333333,1099.2517671130952,1050.25C1104.013671875,1073.1666666666667,1104.013671875,1102.3333333333333,1104.013671875,1131.5C1104.013671875,1160.6666666666667,1104.013671875,1189.8333333333333,1104.013671875,1219C1104.013671875,1248.1666666666667,1104.013671875,1277.3333333333333,1104.013671875,1306.5C1104.013671875,1335.6666666666667,1104.013671875,1364.8333333333333,1098.0475260416667,1387.75C1092.0813802083333,1410.6666666666667,1080.1490885416667,1427.3333333333333,1074.1829427083333,1435.6666666666667L1068.216796875,1444" class="er relationshipLine"/><path style="stroke: gray; fill: none;" marker-start="url(#ONLY_ONE_START)" marker-end="url(#ONE_OR_MORE_END)" d="M1028.0541294642858,994L1022.2853422619049,1002.3333333333334C1016.5165550595239,1010.6666666666666,1004.9789806547619,1027.3333333333333,999.2101934523811,1050.25C993.44140625,1073.1666666666667,993.44140625,1102.3333333333333,993.44140625,1131.5C993.44140625,1160.6666666666667,993.44140625,1189.8333333333333,980.1728515625,1213.3742057332872C966.904296875,1236.915078133241,940.3671875,1254.8301562664817,927.0986328125,1263.7876953331022L913.830078125,1272.7452343997227" class="er relationshipLine"/><path style="stroke: gray; fill: none;" marker-start="url(#ONE_OR_MORE_START)" marker-end="url(#ONE_OR_MORE_END)" d="M326.193359375,78.83333333333333L300.3470052083333,89.8611111111111C274.5006510416667,100.88888888888887,222.80794270833334,122.94444444444444,196.96158854166666,142.30555555555557C171.115234375,161.66666666666666,171.115234375,178.33333333333334,171.115234375,186.66666666666666L171.115234375,195" class="er relationshipLine"/><path style="stroke: gray; fill: none;" marker-start="url(#ONLY_ONE_START)" marker-end="url(#ONLY_ONE_END)" d="M348.2471400669643,252L335.89410109747024,262.1666666666667C323.5410621279762,272.3333333333333,298.8349841889881,292.6666666666667,286.48194521949404,311.1666666666667C274.12890625,329.6666666666667,274.12890625,346.3333333333333,274.12890625,354.6666666666667L274.12890625,363" class="er relationshipLine"/><path style="stroke: gray; fill: none;" marker-start="url(#ONLY_ONE_START)" marker-end="url(#ONE_OR_MORE_END)" d="M274.12890625,563L274.12890625,571.3333333333334C274.12890625,579.6666666666666,274.12890625,596.3333333333334,274.12890625,622.1666666666666C274.12890625,648,274.12890625,683,274.12890625,700.5L274.12890625,718" class="er relationshipLine"/><path style="stroke: gray; fill: none;" marker-start="url(#ONLY_ONE_START)" marker-end="url(#ONE_OR_MORE_END)" d="M778.2578125,994L778.2578125,1002.3333333333334C778.2578125,1010.6666666666666,778.2578125,1027.3333333333333,775.8768601190476,1044C773.4959077380953,1060.6666666666667,768.7340029761905,1077.3333333333333,766.3530505952381,1085.6666666666667L763.9720982142857,1094" class="er relationshipLine"/><path style="stroke: gray; fill: none;" marker-start="url(#ONLY_ONE_START)" marker-end="url(#ONLY_ONE_END)" d="M376.193359375,95L376.193359375,103.33333333333333C376.193359375,111.66666666666667,376.193359375,128.33333333333334,376.193359375,146.83333333333334C376.193359375,165.33333333333334,376.193359375,185.66666666666666,376.193359375,195.83333333333334L376.193359375,206" class="er relationshipLine"/><path style="stroke: gray; fill: none;" marker-start="url(#ONLY_ONE_START)" marker-end="url(#ONE_OR_MORE_END)" d="M426.193359375,65.9582243015357L504.0680338541667,79.13185358461307C581.9427083333334,92.30548286769046,737.6920572916666,118.65274143384522,815.5667317708334,145.8263707169226C893.44140625,173,893.44140625,201,893.44140625,229C893.44140625,257,893.44140625,285,893.44140625,324C893.44140625,363,893.44140625,413,893.44140625,463C893.44140625,513,893.44140625,563,893.44140625,609.3333333333334C893.44140625,655.6666666666666,893.44140625,698.3333333333334,893.44140625,741C893.44140625,783.6666666666666,893.44140625,826.3333333333334,908.7340029761905,856C924.0265997023811,885.6666666666666,954.6117931547619,902.3333333333334,969.9043898809524,910.6666666666666L985.1969866071429,919" class="er relationshipLine"/><path style="stroke: gray; fill: none;" marker-start="url(#ONLY_ONE_START)" marker-end="url(#ONE_OR_MORE_END)" d="M753.2578125,1169L753.2578125,1177.3333333333333C753.2578125,1185.6666666666667,753.2578125,1202.3333333333333,763.7885044642858,1219C774.3191964285714,1235.6666666666667,795.3805803571428,1252.3333333333333,805.9112723214286,1260.6666666666667L816.4419642857143,1269" class="er relationshipLine"/><path style="stroke: gray; fill: none;" marker-start="url(#ONLY_ONE_START)" marker-end="url(#ONE_OR_MORE_END)" d="M326.193359375,238.2066223974723L258.4944661458333,250.67218533122693C190.79557291666666,263.13774826498155,55.397786458333336,288.06887413249075,-12.301106770833334,325.5344370662454C-80,363,-80,413,-80,463C-80,513,-80,563,-80,609.3333333333334C-80,655.6666666666666,-80,698.3333333333334,-80,741C-80,783.6666666666666,-80,826.3333333333334,-80,862.25C-80,898.1666666666666,-80,927.3333333333334,-80,956.5C-80,985.6666666666666,-80,1014.8333333333334,-80,1044C-80,1073.1666666666667,-80,1102.3333333333333,-80,1131.5C-80,1160.6666666666667,-80,1189.8333333333333,68.9716796875,1218.2274386210331C217.943359375,1246.621543908733,515.88671875,1274.2430878174657,664.8583984375,1288.0538597718323L813.830078125,1301.8646317261987" class="er relationshipLine"/><path style="stroke: gray; fill: none;" marker-start="url(#ONLY_ONE_START)" marker-end="url(#ONE_OR_MORE_END)" d="M863.830078125,1344L863.830078125,1352.3333333333333C863.830078125,1360.6666666666667,863.830078125,1377.3333333333333,885.0865885416666,1396.142922625596C906.3430989583334,1414.9525119178586,948.8561197916666,1435.905023835717,970.1126302083334,1446.381279794646L991.369140625,1456.8575357535753" class="er relationshipLine"/><path style="stroke: gray; fill: none;" marker-start="url(#ONLY_ONE_START)" marker-end="url(#ONLY_ONE_END)" d="M426.193359375,234.00958633173133L557.5921223958334,247.17465527644276C688.9908854166666,260.3397242211542,951.7884114583334,286.66986211057707,1083.1871744791667,313.6682643886219C1214.5859375,340.6666666666667,1214.5859375,368.3333333333333,1214.5859375,382.1666666666667L1214.5859375,396" class="er relationshipLine"/><path style="stroke: gray; fill: none;" marker-start="url(#ONLY_ONE_START)" marker-end="url(#ONE_OR_MORE_END)" d="M426.193359375,245.66240498384434L459.8707682291667,256.8853374865369C493.5481770833333,268.10826998922954,560.9029947916666,290.5541349946148,594.5804036458334,326.77706749730737C628.2578125,363,628.2578125,413,628.2578125,463C628.2578125,513,628.2578125,563,628.2578125,609.3333333333334C628.2578125,655.6666666666666,628.2578125,698.3333333333334,628.2578125,741C628.2578125,783.6666666666666,628.2578125,826.3333333333334,628.2578125,862.25C628.2578125,898.1666666666666,628.2578125,927.3333333333334,628.2578125,956.5C628.2578125,985.6666666666666,628.2578125,1014.8333333333334,640.1625744047619,1037.75C652.0673363095239,1060.6666666666667,675.8768601190476,1077.3333333333333,687.7816220238095,1085.6666666666667L699.6863839285714,1094" class="er relationshipLine"/><g transform="translate(1021.37890625,396 )" id="entity-APISPECIFICATION-7d5e5af8-a167-56c3-9a5c-3e8cec9c7774"><rect height="134" width="386.4140625" y="0" x="0" class="er entityBox"/><text style="dominant-baseline: middle; text-anchor: middle; font-size: 12px;" transform="translate(193.20703125,12)" y="0" x="0" id="text-entity-APISPECIFICATION-7d5e5af8-a167-56c3-9a5c-3e8cec9c7774" class="er entityLabel">API_SPECIFICATION</text><rect height="22" width="35.7421875" y="24" x="0" class="er attributeBoxOdd"/><text style="dominant-baseline: middle; font-size: 10.2px;" transform="translate(5,35)" y="0" x="0" id="text-entity-APISPECIFICATION-7d5e5af8-a167-56c3-9a5c-3e8cec9c7774-attr-1-type" class="er entityLabel">string</text><rect height="22" width="76.9453125" y="24" x="35.7421875" class="er attributeBoxOdd"/><text style="dominant-baseline: middle; font-size: 10.2px;" transform="translate(40.7421875,35)" y="0" x="0" id="text-entity-APISPECIFICATION-7d5e5af8-a167-56c3-9a5c-3e8cec9c7774-attr-1-name" class="er entityLabel">specificationId</text><rect height="22" width="273.7265625" y="24" x="112.6875" class="er attributeBoxOdd"/><text style="dominant-baseline: middle; font-size: 10.2px;" transform="translate(117.6875,35)" y="0" x="0" id="text-entity-APISPECIFICATION-7d5e5af8-a167-56c3-9a5c-3e8cec9c7774-attr-1-comment" class="er entityLabel">unique identifier</text><rect height="22" width="35.7421875" y="46" x="0" class="er attributeBoxEven"/><text style="dominant-baseline: middle; font-size: 10.2px;" transform="translate(5,57)" y="0" x="0" id="text-entity-APISPECIFICATION-7d5e5af8-a167-56c3-9a5c-3e8cec9c7774-attr-2-type" class="er entityLabel">string</text><rect height="22" width="76.9453125" y="46" x="35.7421875" class="er attributeBoxEven"/><text style="dominant-baseline: middle; font-size: 10.2px;" transform="translate(40.7421875,57)" y="0" x="0" id="text-entity-APISPECIFICATION-7d5e5af8-a167-56c3-9a5c-3e8cec9c7774-attr-2-name" class="er entityLabel">name</text><rect height="22" width="273.7265625" y="46" x="112.6875" class="er attributeBoxEven"/><text style="dominant-baseline: middle; font-size: 10.2px;" transform="translate(117.6875,57)" y="0" x="0" id="text-entity-APISPECIFICATION-7d5e5af8-a167-56c3-9a5c-3e8cec9c7774-attr-2-comment" class="er entityLabel"/><rect height="22" width="35.7421875" y="68" x="0" class="er attributeBoxOdd"/><text style="dominant-baseline: middle; font-size: 10.2px;" transform="translate(5,79)" y="0" x="0" id="text-entity-APISPECIFICATION-7d5e5af8-a167-56c3-9a5c-3e8cec9c7774-attr-3-type" class="er entityLabel">string</text><rect height="22" width="76.9453125" y="68" x="35.7421875" class="er attributeBoxOdd"/><text style="dominant-baseline: middle; font-size: 10.2px;" transform="translate(40.7421875,79)" y="0" x="0" id="text-entity-APISPECIFICATION-7d5e5af8-a167-56c3-9a5c-3e8cec9c7774-attr-3-name" class="er entityLabel">version</text><rect height="22" width="273.7265625" y="68" x="112.6875" class="er attributeBoxOdd"/><text style="dominant-baseline: middle; font-size: 10.2px;" transform="translate(117.6875,79)" y="0" x="0" id="text-entity-APISPECIFICATION-7d5e5af8-a167-56c3-9a5c-3e8cec9c7774-attr-3-comment" class="er entityLabel">the version of the specification</text><rect height="22" width="35.7421875" y="90" x="0" class="er attributeBoxEven"/><text style="dominant-baseline: middle; font-size: 10.2px;" transform="translate(5,101)" y="0" x="0" id="text-entity-APISPECIFICATION-7d5e5af8-a167-56c3-9a5c-3e8cec9c7774-attr-4-type" class="er entityLabel">string</text><rect height="22" width="76.9453125" y="90" x="35.7421875" class="er attributeBoxEven"/><text style="dominant-baseline: middle; font-size: 10.2px;" transform="translate(40.7421875,101)" y="0" x="0" id="text-entity-APISPECIFICATION-7d5e5af8-a167-56c3-9a5c-3e8cec9c7774-attr-4-name" class="er entityLabel">standardType</text><rect height="22" width="273.7265625" y="90" x="112.6875" class="er attributeBoxEven"/><text style="dominant-baseline: middle; font-size: 10.2px;" transform="translate(117.6875,101)" y="0" x="0" id="text-entity-APISPECIFICATION-7d5e5af8-a167-56c3-9a5c-3e8cec9c7774-attr-4-comment" class="er entityLabel">standard that the API conforms with (WSDL, OpenAPI etc)</text><rect height="22" width="35.7421875" y="112" x="0" class="er attributeBoxOdd"/><text style="dominant-baseline: middle; font-size: 10.2px;" transform="translate(5,123)" y="0" x="0" id="text-entity-APISPECIFICATION-7d5e5af8-a167-56c3-9a5c-3e8cec9c7774-attr-5-type" class="er entityLabel">blob</text><rect height="22" width="76.9453125" y="112" x="35.7421875" class="er attributeBoxOdd"/><text style="dominant-baseline: middle; font-size: 10.2px;" transform="translate(40.7421875,123)" y="0" x="0" id="text-entity-APISPECIFICATION-7d5e5af8-a167-56c3-9a5c-3e8cec9c7774-attr-5-name" class="er entityLabel">specification</text><rect height="22" width="273.7265625" y="112" x="112.6875" class="er attributeBoxOdd"/><text style="dominant-baseline: middle; font-size: 10.2px;" transform="translate(117.6875,123)" y="0" x="0" id="text-entity-APISPECIFICATION-7d5e5af8-a167-56c3-9a5c-3e8cec9c7774-attr-5-comment" class="er entityLabel">the text (JSON,YAML) that describes the actual API</text></g><g transform="translate(993.44140625,663 )" id="entity-INTEROPERABILITYSPECIFICATION-64eaf242-a2bd-5031-a0de-9052f93d9070"><rect height="156" width="442.2890625" y="0" x="0" class="er entityBox"/><text style="dominant-baseline: middle; text-anchor: middle; font-size: 12px;" transform="translate(221.14453125,12)" y="0" x="0" id="text-entity-INTEROPERABILITYSPECIFICATION-64eaf242-a2bd-5031-a0de-9052f93d9070" class="er entityLabel">INTEROPERABILITY_SPECIFICATION</text><rect height="22" width="43.234375" y="24" x="0" class="er attributeBoxOdd"/><text style="dominant-baseline: middle; font-size: 10.2px;" transform="translate(5,35)" y="0" x="0" id="text-entity-INTEROPERABILITYSPECIFICATION-64eaf242-a2bd-5031-a0de-9052f93d9070-attr-1-type" class="er entityLabel">string</text><rect height="22" width="96.3515625" y="24" x="43.234375" class="er attributeBoxOdd"/><text style="dominant-baseline: middle; font-size: 10.2px;" transform="translate(48.234375,35)" y="0" x="0" id="text-entity-INTEROPERABILITYSPECIFICATION-64eaf242-a2bd-5031-a0de-9052f93d9070-attr-1-name" class="er entityLabel">name</text><rect height="22" width="302.703125" y="24" x="139.5859375" class="er attributeBoxOdd"/><text style="dominant-baseline: middle; font-size: 10.2px;" transform="translate(144.5859375,35)" y="0" x="0" id="text-entity-INTEROPERABILITYSPECIFICATION-64eaf242-a2bd-5031-a0de-9052f93d9070-attr-1-comment" class="er entityLabel"/><rect height="22" width="43.234375" y="46" x="0" class="er attributeBoxEven"/><text style="dominant-baseline: middle; font-size: 10.2px;" transform="translate(5,57)" y="0" x="0" id="text-entity-INTEROPERABILITYSPECIFICATION-64eaf242-a2bd-5031-a0de-9052f93d9070-attr-2-type" class="er entityLabel">string</text><rect height="22" width="96.3515625" y="46" x="43.234375" class="er attributeBoxEven"/><text style="dominant-baseline: middle; font-size: 10.2px;" transform="translate(48.234375,57)" y="0" x="0" id="text-entity-INTEROPERABILITYSPECIFICATION-64eaf242-a2bd-5031-a0de-9052f93d9070-attr-2-name" class="er entityLabel">version</text><rect height="22" width="302.703125" y="46" x="139.5859375" class="er attributeBoxEven"/><text style="dominant-baseline: middle; font-size: 10.2px;" transform="translate(144.5859375,57)" y="0" x="0" id="text-entity-INTEROPERABILITYSPECIFICATION-64eaf242-a2bd-5031-a0de-9052f93d9070-attr-2-comment" class="er entityLabel"/><rect height="22" width="43.234375" y="68" x="0" class="er attributeBoxOdd"/><text style="dominant-baseline: middle; font-size: 10.2px;" transform="translate(5,79)" y="0" x="0" id="text-entity-INTEROPERABILITYSPECIFICATION-64eaf242-a2bd-5031-a0de-9052f93d9070-attr-3-type" class="er entityLabel">string</text><rect height="22" width="96.3515625" y="68" x="43.234375" class="er attributeBoxOdd"/><text style="dominant-baseline: middle; font-size: 10.2px;" transform="translate(48.234375,79)" y="0" x="0" id="text-entity-INTEROPERABILITYSPECIFICATION-64eaf242-a2bd-5031-a0de-9052f93d9070-attr-3-name" class="er entityLabel">specificationId</text><rect height="22" width="302.703125" y="68" x="139.5859375" class="er attributeBoxOdd"/><text style="dominant-baseline: middle; font-size: 10.2px;" transform="translate(144.5859375,79)" y="0" x="0" id="text-entity-INTEROPERABILITYSPECIFICATION-64eaf242-a2bd-5031-a0de-9052f93d9070-attr-3-comment" class="er entityLabel">the unique id of the interop specification</text><rect height="22" width="43.234375" y="90" x="0" class="er attributeBoxEven"/><text style="dominant-baseline: middle; font-size: 10.2px;" transform="translate(5,101)" y="0" x="0" id="text-entity-INTEROPERABILITYSPECIFICATION-64eaf242-a2bd-5031-a0de-9052f93d9070-attr-4-type" class="er entityLabel">string</text><rect height="22" width="96.3515625" y="90" x="43.234375" class="er attributeBoxEven"/><text style="dominant-baseline: middle; font-size: 10.2px;" transform="translate(48.234375,101)" y="0" x="0" id="text-entity-INTEROPERABILITYSPECIFICATION-64eaf242-a2bd-5031-a0de-9052f93d9070-attr-4-name" class="er entityLabel">shortDescription</text><rect height="22" width="302.703125" y="90" x="139.5859375" class="er attributeBoxEven"/><text style="dominant-baseline: middle; font-size: 10.2px;" transform="translate(144.5859375,101)" y="0" x="0" id="text-entity-INTEROPERABILITYSPECIFICATION-64eaf242-a2bd-5031-a0de-9052f93d9070-attr-4-comment" class="er entityLabel">short description of the INTEROPERABILITY_SPECIFICATION</text><rect height="22" width="43.234375" y="112" x="0" class="er attributeBoxOdd"/><text style="dominant-baseline: middle; font-size: 10.2px;" transform="translate(5,123)" y="0" x="0" id="text-entity-INTEROPERABILITYSPECIFICATION-64eaf242-a2bd-5031-a0de-9052f93d9070-attr-5-type" class="er entityLabel">blob</text><rect height="22" width="96.3515625" y="112" x="43.234375" class="er attributeBoxOdd"/><text style="dominant-baseline: middle; font-size: 10.2px;" transform="translate(48.234375,123)" y="0" x="0" id="text-entity-INTEROPERABILITYSPECIFICATION-64eaf242-a2bd-5031-a0de-9052f93d9070-attr-5-name" class="er entityLabel">specification</text><rect height="22" width="302.703125" y="112" x="139.5859375" class="er attributeBoxOdd"/><text style="dominant-baseline: middle; font-size: 10.2px;" transform="translate(144.5859375,123)" y="0" x="0" id="text-entity-INTEROPERABILITYSPECIFICATION-64eaf242-a2bd-5031-a0de-9052f93d9070-attr-5-comment" class="er entityLabel">the full specification in various formats</text><rect height="22" width="43.234375" y="134" x="0" class="er attributeBoxEven"/><text style="dominant-baseline: middle; font-size: 10.2px;" transform="translate(5,145)" y="0" x="0" id="text-entity-INTEROPERABILITYSPECIFICATION-64eaf242-a2bd-5031-a0de-9052f93d9070-attr-6-type" class="er entityLabel">string[]</text><rect height="22" width="96.3515625" y="134" x="43.234375" class="er attributeBoxEven"/><text style="dominant-baseline: middle; font-size: 10.2px;" transform="translate(48.234375,145)" y="0" x="0" id="text-entity-INTEROPERABILITYSPECIFICATION-64eaf242-a2bd-5031-a0de-9052f93d9070-attr-6-name" class="er entityLabel">API_SPECIFICATION</text><rect height="22" width="302.703125" y="134" x="139.5859375" class="er attributeBoxEven"/><text style="dominant-baseline: middle; font-size: 10.2px;" transform="translate(144.5859375,145)" y="0" x="0" id="text-entity-INTEROPERABILITYSPECIFICATION-64eaf242-a2bd-5031-a0de-9052f93d9070-attr-6-comment" class="er entityLabel">reference to the API_SPECIFICATION(s) used in this specification</text></g><g transform="translate(973.646484375,919 )" id="entity-IMPLEMENTATIONGUIDE-9cc0490d-3d87-5567-a085-c6b065c736e6"><rect height="75" width="160.734375" y="0" x="0" class="er entityBox"/><text style="dominant-baseline: middle; text-anchor: middle; font-size: 12px;" transform="translate(80.3671875,37.5)" y="0" x="0" id="text-entity-IMPLEMENTATIONGUIDE-9cc0490d-3d87-5567-a085-c6b065c736e6" class="er entityLabel">IMPLEMENTATION_GUIDE</text></g><g transform="translate(685.38671875,1094 )" id="entity-PRODUCERCATALOG-f5ac0e55-c1b3-5508-b4d8-e10bb36f806f"><rect height="75" width="135.7421875" y="0" x="0" class="er entityBox"/><text style="dominant-baseline: middle; text-anchor: middle; font-size: 12px;" transform="translate(67.87109375,37.5)" y="0" x="0" id="text-entity-PRODUCERCATALOG-f5ac0e55-c1b3-5508-b4d8-e10bb36f806f" class="er entityLabel">PRODUCERCATALOG</text></g><g transform="translate(991.369140625,1444 )" id="entity-PROFILE-76065e2a-30c1-5a18-bd0a-2c7297da73b4"><rect height="75" width="100" y="0" x="0" class="er entityBox"/><text style="dominant-baseline: middle; text-anchor: middle; font-size: 12px;" transform="translate(50,37.5)" y="0" x="0" id="text-entity-PROFILE-76065e2a-30c1-5a18-bd0a-2c7297da73b4" class="er entityLabel">PROFILE</text></g><g transform="translate(813.830078125,1269 )" id="entity-RESOURCE-36990b0c-be8f-56c4-bd88-e934fec22ca0"><rect height="75" width="100" y="0" x="0" class="er entityBox"/><text style="dominant-baseline: middle; text-anchor: middle; font-size: 12px;" transform="translate(50,37.5)" y="0" x="0" id="text-entity-RESOURCE-36990b0c-be8f-56c4-bd88-e934fec22ca0" class="er entityLabel">RESOURCE</text></g><g transform="translate(326.193359375,20 )" id="entity-FHIRSERVER-69b040d1-5d61-5022-a6e7-00b6ff19f909"><rect height="75" width="100" y="0" x="0" class="er entityBox"/><text style="dominant-baseline: middle; text-anchor: middle; font-size: 12px;" transform="translate(50,37.5)" y="0" x="0" id="text-entity-FHIRSERVER-69b040d1-5d61-5022-a6e7-00b6ff19f909" class="er entityLabel">FHIR_SERVER</text></g><g transform="translate(116.037109375,195 )" id="entity-ORGANISATION-18f6046c-38eb-5437-9766-842201da3913"><rect height="68" width="110.15625" y="0" x="0" class="er entityBox"/><text style="dominant-baseline: middle; text-anchor: middle; font-size: 12px;" transform="translate(55.078125,12)" y="0" x="0" id="text-entity-ORGANISATION-18f6046c-38eb-5437-9766-842201da3913" class="er entityLabel">ORGANISATION</text><rect height="22" width="35.7421875" y="24" x="0" class="er attributeBoxOdd"/><text style="dominant-baseline: middle; font-size: 10.2px;" transform="translate(5,35)" y="0" x="0" id="text-entity-ORGANISATION-18f6046c-38eb-5437-9766-842201da3913-attr-1-type" class="er entityLabel">string</text><rect height="22" width="74.4140625" y="24" x="35.7421875" class="er attributeBoxOdd"/><text style="dominant-baseline: middle; font-size: 10.2px;" transform="translate(40.7421875,35)" y="0" x="0" id="text-entity-ORGANISATION-18f6046c-38eb-5437-9766-842201da3913-attr-1-name" class="er entityLabel">name</text><rect height="22" width="35.7421875" y="46" x="0" class="er attributeBoxEven"/><text style="dominant-baseline: middle; font-size: 10.2px;" transform="translate(5,57)" y="0" x="0" id="text-entity-ORGANISATION-18f6046c-38eb-5437-9766-842201da3913-attr-2-type" class="er entityLabel">string</text><rect height="22" width="74.4140625" y="46" x="35.7421875" class="er attributeBoxEven"/><text style="dominant-baseline: middle; font-size: 10.2px;" transform="translate(40.7421875,57)" y="0" x="0" id="text-entity-ORGANISATION-18f6046c-38eb-5437-9766-842201da3913-attr-2-name" class="er entityLabel">organisationId</text></g><g transform="translate(326.193359375,206 )" id="entity-API-35da98ab-da40-5773-8d4f-7f4d05629c84"><rect height="46" width="100" y="0" x="0" class="er entityBox"/><text style="dominant-baseline: middle; text-anchor: middle; font-size: 12px;" transform="translate(50,12)" y="0" x="0" id="text-entity-API-35da98ab-da40-5773-8d4f-7f4d05629c84" class="er entityLabel">API</text><rect height="22" width="50.38671875" y="24" x="0" class="er attributeBoxOdd"/><text style="dominant-baseline: middle; font-size: 10.2px;" transform="translate(5,35)" y="0" x="0" id="text-entity-API-35da98ab-da40-5773-8d4f-7f4d05629c84-attr-1-type" class="er entityLabel">string</text><rect height="22" width="49.61328125" y="24" x="50.38671875" class="er attributeBoxOdd"/><text style="dominant-baseline: middle; font-size: 10.2px;" transform="translate(55.38671875,35)" y="0" x="0" id="text-entity-API-35da98ab-da40-5773-8d4f-7f4d05629c84-attr-1-name" class="er entityLabel">name</text></g><g transform="translate(20,363 )" id="entity-APIMETADATA-293744dd-d2af-5749-83b2-d33322edc09e"><rect height="200" width="508.2578125" y="0" x="0" class="er entityBox"/><text style="dominant-baseline: middle; text-anchor: middle; font-size: 12px;" transform="translate(254.12890625,12)" y="0" x="0" id="text-entity-APIMETADATA-293744dd-d2af-5749-83b2-d33322edc09e" class="er entityLabel">API_METADATA</text><rect height="22" width="43.234375" y="24" x="0" class="er attributeBoxOdd"/><text style="dominant-baseline: middle; font-size: 10.2px;" transform="translate(5,35)" y="0" x="0" id="text-entity-APIMETADATA-293744dd-d2af-5749-83b2-d33322edc09e-attr-1-type" class="er entityLabel">string</text><rect height="22" width="166.8125" y="24" x="43.234375" class="er attributeBoxOdd"/><text style="dominant-baseline: middle; font-size: 10.2px;" transform="translate(48.234375,35)" y="0" x="0" id="text-entity-APIMETADATA-293744dd-d2af-5749-83b2-d33322edc09e-attr-1-name" class="er entityLabel">specificationId</text><rect height="22" width="298.2109375" y="24" x="210.046875" class="er attributeBoxOdd"/><text style="dominant-baseline: middle; font-size: 10.2px;" transform="translate(215.046875,35)" y="0" x="0" id="text-entity-APIMETADATA-293744dd-d2af-5749-83b2-d33322edc09e-attr-1-comment" class="er entityLabel">reference to spec</text><rect height="22" width="43.234375" y="46" x="0" class="er attributeBoxEven"/><text style="dominant-baseline: middle; font-size: 10.2px;" transform="translate(5,57)" y="0" x="0" id="text-entity-APIMETADATA-293744dd-d2af-5749-83b2-d33322edc09e-attr-2-type" class="er entityLabel">string</text><rect height="22" width="166.8125" y="46" x="43.234375" class="er attributeBoxEven"/><text style="dominant-baseline: middle; font-size: 10.2px;" transform="translate(48.234375,57)" y="0" x="0" id="text-entity-APIMETADATA-293744dd-d2af-5749-83b2-d33322edc09e-attr-2-name" class="er entityLabel">api_id</text><rect height="22" width="298.2109375" y="46" x="210.046875" class="er attributeBoxEven"/><text style="dominant-baseline: middle; font-size: 10.2px;" transform="translate(215.046875,57)" y="0" x="0" id="text-entity-APIMETADATA-293744dd-d2af-5749-83b2-d33322edc09e-attr-2-comment" class="er entityLabel">the unique id for the API</text><rect height="22" width="43.234375" y="68" x="0" class="er attributeBoxOdd"/><text style="dominant-baseline: middle; font-size: 10.2px;" transform="translate(5,79)" y="0" x="0" id="text-entity-APIMETADATA-293744dd-d2af-5749-83b2-d33322edc09e-attr-3-type" class="er entityLabel">string[]</text><rect height="22" width="166.8125" y="68" x="43.234375" class="er attributeBoxOdd"/><text style="dominant-baseline: middle; font-size: 10.2px;" transform="translate(48.234375,79)" y="0" x="0" id="text-entity-APIMETADATA-293744dd-d2af-5749-83b2-d33322edc09e-attr-3-name" class="er entityLabel">INTEROPERABILITY_SPECIFICATION</text><rect height="22" width="298.2109375" y="68" x="210.046875" class="er attributeBoxOdd"/><text style="dominant-baseline: middle; font-size: 10.2px;" transform="translate(215.046875,79)" y="0" x="0" id="text-entity-APIMETADATA-293744dd-d2af-5749-83b2-d33322edc09e-attr-3-comment" class="er entityLabel">one or more interoperability specs that is supported by the API</text><rect height="22" width="43.234375" y="90" x="0" class="er attributeBoxEven"/><text style="dominant-baseline: middle; font-size: 10.2px;" transform="translate(5,101)" y="0" x="0" id="text-entity-APIMETADATA-293744dd-d2af-5749-83b2-d33322edc09e-attr-4-type" class="er entityLabel">string</text><rect height="22" width="166.8125" y="90" x="43.234375" class="er attributeBoxEven"/><text style="dominant-baseline: middle; font-size: 10.2px;" transform="translate(48.234375,101)" y="0" x="0" id="text-entity-APIMETADATA-293744dd-d2af-5749-83b2-d33322edc09e-attr-4-name" class="er entityLabel">organisationName</text><rect height="22" width="298.2109375" y="90" x="210.046875" class="er attributeBoxEven"/><text style="dominant-baseline: middle; font-size: 10.2px;" transform="translate(215.046875,101)" y="0" x="0" id="text-entity-APIMETADATA-293744dd-d2af-5749-83b2-d33322edc09e-attr-4-comment" class="er entityLabel"/><rect height="22" width="43.234375" y="112" x="0" class="er attributeBoxOdd"/><text style="dominant-baseline: middle; font-size: 10.2px;" transform="translate(5,123)" y="0" x="0" id="text-entity-APIMETADATA-293744dd-d2af-5749-83b2-d33322edc09e-attr-5-type" class="er entityLabel">string</text><rect height="22" width="166.8125" y="112" x="43.234375" class="er attributeBoxOdd"/><text style="dominant-baseline: middle; font-size: 10.2px;" transform="translate(48.234375,123)" y="0" x="0" id="text-entity-APIMETADATA-293744dd-d2af-5749-83b2-d33322edc09e-attr-5-name" class="er entityLabel">organisationId</text><rect height="22" width="298.2109375" y="112" x="210.046875" class="er attributeBoxOdd"/><text style="dominant-baseline: middle; font-size: 10.2px;" transform="translate(215.046875,123)" y="0" x="0" id="text-entity-APIMETADATA-293744dd-d2af-5749-83b2-d33322edc09e-attr-5-comment" class="er entityLabel">if of the owner of the API</text><rect height="22" width="43.234375" y="134" x="0" class="er attributeBoxEven"/><text style="dominant-baseline: middle; font-size: 10.2px;" transform="translate(5,145)" y="0" x="0" id="text-entity-APIMETADATA-293744dd-d2af-5749-83b2-d33322edc09e-attr-6-type" class="er entityLabel">string</text><rect height="22" width="166.8125" y="134" x="43.234375" class="er attributeBoxEven"/><text style="dominant-baseline: middle; font-size: 10.2px;" transform="translate(48.234375,145)" y="0" x="0" id="text-entity-APIMETADATA-293744dd-d2af-5749-83b2-d33322edc09e-attr-6-name" class="er entityLabel">logical_adress</text><rect height="22" width="298.2109375" y="134" x="210.046875" class="er attributeBoxEven"/><text style="dominant-baseline: middle; font-size: 10.2px;" transform="translate(215.046875,145)" y="0" x="0" id="text-entity-APIMETADATA-293744dd-d2af-5749-83b2-d33322edc09e-attr-6-comment" class="er entityLabel"> the logical address for the API</text><rect height="22" width="43.234375" y="156" x="0" class="er attributeBoxOdd"/><text style="dominant-baseline: middle; font-size: 10.2px;" transform="translate(5,167)" y="0" x="0" id="text-entity-APIMETADATA-293744dd-d2af-5749-83b2-d33322edc09e-attr-7-type" class="er entityLabel">string</text><rect height="22" width="166.8125" y="156" x="43.234375" class="er attributeBoxOdd"/><text style="dominant-baseline: middle; font-size: 10.2px;" transform="translate(48.234375,167)" y="0" x="0" id="text-entity-APIMETADATA-293744dd-d2af-5749-83b2-d33322edc09e-attr-7-name" class="er entityLabel">technical_address</text><rect height="22" width="298.2109375" y="156" x="210.046875" class="er attributeBoxOdd"/><text style="dominant-baseline: middle; font-size: 10.2px;" transform="translate(215.046875,167)" y="0" x="0" id="text-entity-APIMETADATA-293744dd-d2af-5749-83b2-d33322edc09e-attr-7-comment" class="er entityLabel">the url for the API</text><rect height="22" width="43.234375" y="178" x="0" class="er attributeBoxEven"/><text style="dominant-baseline: middle; font-size: 10.2px;" transform="translate(5,189)" y="0" x="0" id="text-entity-APIMETADATA-293744dd-d2af-5749-83b2-d33322edc09e-attr-8-type" class="er entityLabel">string</text><rect height="22" width="166.8125" y="178" x="43.234375" class="er attributeBoxEven"/><text style="dominant-baseline: middle; font-size: 10.2px;" transform="translate(48.234375,189)" y="0" x="0" id="text-entity-APIMETADATA-293744dd-d2af-5749-83b2-d33322edc09e-attr-8-name" class="er entityLabel">authority_service</text><rect height="22" width="298.2109375" y="178" x="210.046875" class="er attributeBoxEven"/><text style="dominant-baseline: middle; font-size: 10.2px;" transform="translate(215.046875,189)" y="0" x="0" id="text-entity-APIMETADATA-293744dd-d2af-5749-83b2-d33322edc09e-attr-8-comment" class="er entityLabel">the Auth service wher to get access tokens</text></g><g transform="translate(214.625,718 )" id="entity-APICATALOG-8c0c2fd0-93d1-5fb3-a80a-1def76ffc736"><rect height="46" width="119.0078125" y="0" x="0" class="er entityBox"/><text style="dominant-baseline: middle; text-anchor: middle; font-size: 12px;" transform="translate(59.50390625,12)" y="0" x="0" id="text-entity-APICATALOG-8c0c2fd0-93d1-5fb3-a80a-1def76ffc736" class="er entityLabel">API_CATALOG</text><rect height="22" width="43.234375" y="24" x="0" class="er attributeBoxOdd"/><text style="dominant-baseline: middle; font-size: 10.2px;" transform="translate(5,35)" y="0" x="0" id="text-entity-APICATALOG-8c0c2fd0-93d1-5fb3-a80a-1def76ffc736-attr-1-type" class="er entityLabel">string[]</text><rect height="22" width="75.7734375" y="24" x="43.234375" class="er attributeBoxOdd"/><text style="dominant-baseline: middle; font-size: 10.2px;" transform="translate(48.234375,35)" y="0" x="0" id="text-entity-APICATALOG-8c0c2fd0-93d1-5fb3-a80a-1def76ffc736-attr-1-name" class="er entityLabel">API_METADATA</text></g><g transform="translate(728.2578125,919 )" id="entity-APICLIENT-7ddc0dda-3673-5663-befa-eb82baf3f28f"><rect height="75" width="100" y="0" x="0" class="er entityBox"/><text style="dominant-baseline: middle; text-anchor: middle; font-size: 12px;" transform="translate(50,37.5)" y="0" x="0" id="text-entity-APICLIENT-7ddc0dda-3673-5663-befa-eb82baf3f28f" class="er entityLabel">API_CLIENT</text></g><rect height="14" width="56.3046875" y="589.5" x="1186.43359375" class="er relationshipLabelBox"/><text style="text-anchor: middle; dominant-baseline: middle; font-size: 12px;" y="596.5" x="1214.5859375" id="rel272" class="er relationshipLabel">refered by</text><rect height="14" width="39.046875" y="1035.3175048828125" x="878.7631225585938" class="er relationshipLabelBox"/><text style="text-anchor: middle; dominant-baseline: middle; font-size: 12px;" y="1042.3175048828125" x="898.2865600585938" id="rel273" class="er relationshipLabel">defines</text><rect height="14" width="60.26953125" y="874.552001953125" x="1155.060546875" class="er relationshipLabelBox"/><text style="text-anchor: middle; dominant-baseline: middle; font-size: 12px;" y="881.552001953125" x="1185.1953125" id="rel274" class="er relationshipLabel"> is a type of</text><rect height="14" width="64.0859375" y="1213.43359375" x="1071.970703125" class="er relationshipLabelBox"/><text style="text-anchor: middle; dominant-baseline: middle; font-size: 12px;" y="1220.43359375" x="1104.013671875" id="rel275" class="er relationshipLabel">can refer to</text><rect height="14" width="64.0859375" y="1138.7408447265625" x="961.33984375" class="er relationshipLabelBox"/><text style="text-anchor: middle; dominant-baseline: middle; font-size: 12px;" y="1145.7408447265625" x="993.3828125" id="rel276" class="er relationshipLabel">can refer to</text><rect height="14" width="51.375" y="114.13768005371094" x="206.53692626953125" class="er relationshipLabelBox"/><text style="text-anchor: middle; dominant-baseline: middle; font-size: 12px;" y="121.13768005371094" x="232.22442626953125" id="rel277" class="er relationshipLabel">owned by</text><rect height="14" width="68.25" y="291.78057861328125" x="262.07415771484375" class="er relationshipLabelBox"/><text style="text-anchor: middle; dominant-baseline: middle; font-size: 12px;" y="298.78057861328125" x="296.19915771484375" id="rel278" class="er relationshipLabel">described by</text><rect height="14" width="68.3046875" y="633.5" x="239.9765625" class="er relationshipLabelBox"/><text style="text-anchor: middle; dominant-baseline: middle; font-size: 12px;" y="640.5" x="274.12890625" id="rel279" class="er relationshipLabel">registered in</text><rect height="14" width="22.8203125" y="1037.661865234375" x="764.3706665039062" class="er relationshipLabelBox"/><text style="text-anchor: middle; dominant-baseline: middle; font-size: 12px;" y="1044.661865234375" x="775.7808227539062" id="rel280" class="er relationshipLabel">uses</text><rect height="14" width="45.1796875" y="143.5" x="353.603515625" class="er relationshipLabelBox"/><text style="text-anchor: middle; dominant-baseline: middle; font-size: 12px;" y="150.5" x="376.193359375" id="rel281" class="er relationshipLabel">provides</text><rect height="14" width="77.8125" y="325.6519775390625" x="854.53515625" class="er relationshipLabelBox"/><text style="text-anchor: middle; dominant-baseline: middle; font-size: 12px;" y="332.6519775390625" x="893.44140625" id="rel282" class="er relationshipLabel">Conforms with</text><rect height="14" width="22.8203125" y="1220.46875" x="758.5669555664062" class="er relationshipLabelBox"/><text style="text-anchor: middle; dominant-baseline: middle; font-size: 12px;" y="1227.46875" x="769.9771118164062" id="rel283" class="er relationshipLabel">uses</text><rect height="14" width="41.046875" y="1001.9522705078125" x="-100.5234375" class="er relationshipLabelBox"/><text style="text-anchor: middle; dominant-baseline: middle; font-size: 12px;" y="1008.9522705078125" x="-80" id="rel284" class="er relationshipLabel">handles</text><rect height="14" width="58.640625" y="1407.7060546875" x="881.7332763671875" class="er relationshipLabelBox"/><text style="text-anchor: middle; dominant-baseline: middle; font-size: 12px;" y="1414.7060546875" x="911.0535888671875" id="rel285" class="er relationshipLabel">profiled by</text><rect height="14" width="76.578125" y="270.63031005859375" x="802.2359619140625" class="er relationshipLabelBox"/><text style="text-anchor: middle; dominant-baseline: middle; font-size: 12px;" y="277.63031005859375" x="840.5250244140625" id="rel286" class="er relationshipLabel">conforms with</text><rect height="14" width="76.224609375" y="619.2353515625" x="590.1455078125" class="er relationshipLabelBox"/><text style="text-anchor: middle; dominant-baseline: middle; font-size: 12px;" y="626.2353515625" x="628.2578125" id="rel287" class="er relationshipLabel">can be part of</text></svg>