<svg aria-roledescription="er" role="graphics-document document" viewBox="0 0 778.2607421875 990" style="max-width: 778.261px; background-color: rgb(255, 255, 255);" xmlns:xlink="http://www.w3.org/1999/xlink" xmlns="http://www.w3.org/2000/svg" width="100%" id="mermaid-1692955838569"><style>#mermaid-1692955838569{font-family:"trebuchet ms",verdana,arial,sans-serif;font-size:16px;fill:#000000;}#mermaid-1692955838569 .error-icon{fill:#552222;}#mermaid-1692955838569 .error-text{fill:#552222;stroke:#552222;}#mermaid-1692955838569 .edge-thickness-normal{stroke-width:2px;}#mermaid-1692955838569 .edge-thickness-thick{stroke-width:3.5px;}#mermaid-1692955838569 .edge-pattern-solid{stroke-dasharray:0;}#mermaid-1692955838569 .edge-pattern-dashed{stroke-dasharray:3;}#mermaid-1692955838569 .edge-pattern-dotted{stroke-dasharray:2;}#mermaid-1692955838569 .marker{fill:#000000;stroke:#000000;}#mermaid-1692955838569 .marker.cross{stroke:#000000;}#mermaid-1692955838569 svg{font-family:"trebuchet ms",verdana,arial,sans-serif;font-size:16px;}#mermaid-1692955838569 .entityBox{fill:#cde498;stroke:#13540c;}#mermaid-1692955838569 .attributeBoxOdd{fill:#ffffff;stroke:#13540c;}#mermaid-1692955838569 .attributeBoxEven{fill:#f2f2f2;stroke:#13540c;}#mermaid-1692955838569 .relationshipLabelBox{fill:hsl(78.1578947368, 58.4615384615%, 84.5098039216%);opacity:0.7;background-color:hsl(78.1578947368, 58.4615384615%, 84.5098039216%);}#mermaid-1692955838569 .relationshipLabelBox rect{opacity:0.5;}#mermaid-1692955838569 .relationshipLine{stroke:#000000;}#mermaid-1692955838569 .entityTitleText{text-anchor:middle;font-size:18px;fill:#000000;}#mermaid-1692955838569 :root{--mermaid-font-family:"trebuchet ms",verdana,arial,sans-serif;}</style><g/><defs><marker orient="auto" markerHeight="18" markerWidth="18" refY="9" refX="0" id="ONLY_ONE_START"><path d="M9,0 L9,18 M15,0 L15,18" fill="none" stroke="gray"/></marker></defs><defs><marker orient="auto" markerHeight="18" markerWidth="18" refY="9" refX="18" id="ONLY_ONE_END"><path d="M3,0 L3,18 M9,0 L9,18" fill="none" stroke="gray"/></marker></defs><defs><marker orient="auto" markerHeight="18" markerWidth="30" refY="9" refX="0" id="ZERO_OR_ONE_START"><circle r="6" cy="9" cx="21" fill="white" stroke="gray"/><path d="M9,0 L9,18" fill="none" stroke="gray"/></marker></defs><defs><marker orient="auto" markerHeight="18" markerWidth="30" refY="9" refX="30" id="ZERO_OR_ONE_END"><circle r="6" cy="9" cx="9" fill="white" stroke="gray"/><path d="M21,0 L21,18" fill="none" stroke="gray"/></marker></defs><defs><marker orient="auto" markerHeight="36" markerWidth="45" refY="18" refX="18" id="ONE_OR_MORE_START"><path d="M0,18 Q 18,0 36,18 Q 18,36 0,18 M42,9 L42,27" fill="none" stroke="gray"/></marker></defs><defs><marker orient="auto" markerHeight="36" markerWidth="45" refY="18" refX="27" id="ONE_OR_MORE_END"><path d="M3,9 L3,27 M9,18 Q27,0 45,18 Q27,36 9,18" fill="none" stroke="gray"/></marker></defs><defs><marker orient="auto" markerHeight="36" markerWidth="57" refY="18" refX="18" id="ZERO_OR_MORE_START"><circle r="6" cy="18" cx="48" fill="white" stroke="gray"/><path d="M0,18 Q18,0 36,18 Q18,36 0,18" fill="none" stroke="gray"/></marker></defs><defs><marker orient="auto" markerHeight="36" markerWidth="57" refY="18" refX="39" id="ZERO_OR_MORE_END"><circle r="6" cy="18" cx="9" fill="white" stroke="gray"/><path d="M21,18 Q39,0 57,18 Q39,36 21,18" fill="none" stroke="gray"/></marker></defs><path style="stroke: gray; fill: none;" marker-start="url(#ONLY_ONE_START)" marker-end="url(#ONE_OR_MORE_END)" d="M127.24283599853516,620L127.24283599853516,628.3333333333334C127.24283599853516,636.6666666666666,127.24283599853516,653.3333333333334,127.24283599853516,670C127.24283599853516,686.6666666666666,127.24283599853516,703.3333333333334,127.24283599853516,711.6666666666666L127.24283599853516,720" class="er relationshipLine"/><path style="stroke: gray; fill: none;" marker-start="url(#ONLY_ONE_START)" marker-end="url(#ONLY_ONE_END)" d="M127.24283599853516,795L127.24283599853516,803.3333333333334C127.24283599853516,811.6666666666666,127.24283599853516,828.3333333333334,166.74288940429688,848.7093524301207C206.2429428100586,869.0853715269081,285.24304962158203,893.1707430538163,324.74310302734375,905.2134288172703L364.24315643310547,917.2561145807243" class="er relationshipLine"/><path style="stroke: gray; fill: none;" marker-start="url(#ONE_OR_MORE_START)" marker-end="url(#ONLY_ONE_END)" d="M366.02050018310547,95L366.02050018310547,103.33333333333333C366.02050018310547,111.66666666666667,366.02050018310547,128.33333333333334,366.02050018310547,145C366.02050018310547,161.66666666666666,366.02050018310547,178.33333333333334,366.02050018310547,186.66666666666666L366.02050018310547,195" class="er relationshipLine"/><path style="stroke: gray; fill: none;" marker-start="url(#ONLY_ONE_START)" marker-end="url(#ONE_OR_MORE_END)" d="M366.02050018310547,270L366.02050018310547,278.3333333333333C366.02050018310547,286.6666666666667,366.02050018310547,303.3333333333333,366.02050018310547,320C366.02050018310547,336.6666666666667,366.02050018310547,353.3333333333333,366.02050018310547,361.6666666666667L366.02050018310547,370" class="er relationshipLine"/><path style="stroke: gray; fill: none;" marker-start="url(#ONLY_ONE_START)" marker-end="url(#ONLY_ONE_END)" d="M316.02050018310547,425.8224842865462L284.55755615234375,437.3520702387885C253.09461212158203,448.8816561910308,190.1687240600586,471.94082809551537,158.70578002929688,491.803747381091C127.24283599853516,511.6666666666667,127.24283599853516,528.3333333333334,127.24283599853516,536.6666666666666L127.24283599853516,545" class="er relationshipLine"/><path style="stroke: gray; fill: none;" marker-start="url(#ONLY_ONE_START)" marker-end="url(#ONE_OR_MORE_END)" d="M416.02050018310547,419.8552124883137L466.7040932973226,432.37934374026145C517.3876864115397,444.90347499220917,618.754872639974,469.9517374961046,669.438465754191,497.0592020813856C720.1220588684082,524.1666666666666,720.1220588684082,553.3333333333334,720.1220588684082,582.5C720.1220588684082,611.6666666666666,720.1220588684082,640.8333333333334,720.1220588684082,670C720.1220588684082,699.1666666666666,720.1220588684082,728.3333333333334,720.1220588684082,757.5C720.1220588684082,786.6666666666666,720.1220588684082,815.8333333333334,677.475575129191,842.6161590065176C634.829091389974,869.3989846797018,549.5361239115397,893.7979693594039,506.8896401723226,905.9974616992548L464.24315643310547,918.1969540391058" class="er relationshipLine"/><path style="stroke: gray; fill: none;" marker-start="url(#ONLY_ONE_START)" marker-end="url(#ONE_OR_MORE_END)" d="M366.02050018310547,620L366.02050018310547,628.3333333333334C366.02050018310547,636.6666666666666,366.02050018310547,653.3333333333334,375.7199358258929,670C385.41937146868025,686.6666666666666,404.818242754255,703.3333333333334,414.5176783970424,711.6666666666666L424.2171140398298,720" class="er relationshipLine"/><path style="stroke: gray; fill: none;" marker-start="url(#ONLY_ONE_START)" marker-end="url(#ONE_OR_MORE_END)" d="M569.7086486816406,620L569.7086486816406,628.3333333333334C569.7086486816406,636.6666666666666,569.7086486816406,653.3333333333334,560.0092130388532,670C550.3097773960659,686.6666666666666,530.910906110491,703.3333333333334,521.2114704677036,711.6666666666666L511.51203482491627,720" class="er relationshipLine"/><path style="stroke: gray; fill: none;" marker-start="url(#ONLY_ONE_START)" marker-end="url(#ONLY_ONE_END)" d="M366.02050018310547,445L366.02050018310547,453.3333333333333C366.02050018310547,461.6666666666667,366.02050018310547,478.3333333333333,366.02050018310547,495C366.02050018310547,511.6666666666667,366.02050018310547,528.3333333333334,366.02050018310547,536.6666666666666L366.02050018310547,545" class="er relationshipLine"/><g transform="translate(61.4453125,545 )" id="entity-APISPECIFICATION-7d5e5af8-a167-56c3-9a5c-3e8cec9c7774"><rect height="75" width="131.5950469970703" y="0" x="0" class="er entityBox"/><text style="dominant-baseline: middle; text-anchor: middle; font-size: 12px;" transform="translate(65.79752349853516,37.5)" y="0" x="0" id="text-entity-APISPECIFICATION-7d5e5af8-a167-56c3-9a5c-3e8cec9c7774" class="er entityLabel">API_SPECIFICATION</text></g><g transform="translate(20,720 )" id="entity-INTEROPERABILITYSPECIFICATION-64eaf242-a2bd-5031-a0de-9052f93d9070"><rect height="75" width="214.4856719970703" y="0" x="0" class="er entityBox"/><text style="dominant-baseline: middle; text-anchor: middle; font-size: 12px;" transform="translate(107.24283599853516,37.5)" y="0" x="0" id="text-entity-INTEROPERABILITYSPECIFICATION-64eaf242-a2bd-5031-a0de-9052f93d9070" class="er entityLabel">INTEROPERABILITY_SPECIFICATION</text></g><g transform="translate(364.24315643310547,895 )" id="entity-SERVICE-9e7e25d4-6c7d-5936-bea4-5c3379ed66bc"><rect height="75" width="100" y="0" x="0" class="er entityBox"/><text style="dominant-baseline: middle; text-anchor: middle; font-size: 12px;" transform="translate(50,37.5)" y="0" x="0" id="text-entity-SERVICE-9e7e25d4-6c7d-5936-bea4-5c3379ed66bc" class="er entityLabel">SERVICE</text></g><g transform="translate(311.5218048095703,20 )" id="entity-ORGANISATION-18f6046c-38eb-5437-9766-842201da3913"><rect height="75" width="108.99739074707031" y="0" x="0" class="er entityBox"/><text style="dominant-baseline: middle; text-anchor: middle; font-size: 12px;" transform="translate(54.498695373535156,37.5)" y="0" x="0" id="text-entity-ORGANISATION-18f6046c-38eb-5437-9766-842201da3913" class="er entityLabel">ORGANISATION</text></g><g transform="translate(291.30370330810547,195 )" id="entity-INFORMATIONSYSTEM-4dc12d9e-b57a-5ff4-acbe-0888b1c2d10f"><rect height="75" width="149.43359375" y="0" x="0" class="er entityBox"/><text style="dominant-baseline: middle; text-anchor: middle; font-size: 12px;" transform="translate(74.716796875,37.5)" y="0" x="0" id="text-entity-INFORMATIONSYSTEM-4dc12d9e-b57a-5ff4-acbe-0888b1c2d10f" class="er entityLabel">INFORMATION_SYSTEM</text></g><g transform="translate(316.02050018310547,370 )" id="entity-API-35da98ab-da40-5773-8d4f-7f4d05629c84"><rect height="75" width="100" y="0" x="0" class="er entityBox"/><text style="dominant-baseline: middle; text-anchor: middle; font-size: 12px;" transform="translate(50,37.5)" y="0" x="0" id="text-entity-API-35da98ab-da40-5773-8d4f-7f4d05629c84" class="er entityLabel">API</text></g><g transform="translate(312.3323516845703,545 )" id="entity-APIMETADATA-293744dd-d2af-5749-83b2-d33322edc09e"><rect height="75" width="107.37629699707031" y="0" x="0" class="er entityBox"/><text style="dominant-baseline: middle; text-anchor: middle; font-size: 12px;" transform="translate(53.688148498535156,37.5)" y="0" x="0" id="text-entity-APIMETADATA-293744dd-d2af-5749-83b2-d33322edc09e" class="er entityLabel">API_METADATA</text></g><g transform="translate(417.0377540588379,720 )" id="entity-APICATALOG-8c0c2fd0-93d1-5fb3-a80a-1def76ffc736"><rect height="75" width="101.65364074707031" y="0" x="0" class="er entityBox"/><text style="dominant-baseline: middle; text-anchor: middle; font-size: 12px;" transform="translate(50.826820373535156,37.5)" y="0" x="0" id="text-entity-APICATALOG-8c0c2fd0-93d1-5fb3-a80a-1def76ffc736" class="er entityLabel">API_CATALOG</text></g><g transform="translate(519.7086486816406,545 )" id="entity-APICLIENT-7ddc0dda-3673-5663-befa-eb82baf3f28f"><rect height="75" width="100" y="0" x="0" class="er entityBox"/><text style="dominant-baseline: middle; text-anchor: middle; font-size: 12px;" transform="translate(50,37.5)" y="0" x="0" id="text-entity-APICLIENT-7ddc0dda-3673-5663-befa-eb82baf3f28f" class="er entityLabel">API_CLIENT</text></g><rect height="13.75" width="56.30859375" y="663.125" x="99.08853912353516" class="er relationshipLabelBox"/><text style="text-anchor: middle; dominant-baseline: middle; font-size: 12px;" y="670" x="127.24283599853516" id="rel1" class="er relationshipLabel">refered by</text><rect height="13.75" width="39.049476623535156" y="867.8390502929688" x="210.7246208190918" class="er relationshipLabelBox"/><text style="text-anchor: middle; dominant-baseline: middle; font-size: 12px;" y="874.7140502929688" x="230.24935913085938" id="rel2" class="er relationshipLabel">defines</text><rect height="13.75" width="26.78385353088379" y="138.125" x="352.6285810470581" class="er relationshipLabelBox"/><text style="text-anchor: middle; dominant-baseline: middle; font-size: 12px;" y="145" x="366.0205078125" id="rel3" class="er relationshipLabel">owns</text><rect height="13.75" width="45.17578125" y="313.125" x="343.4326171875" class="er relationshipLabelBox"/><text style="text-anchor: middle; dominant-baseline: middle; font-size: 12px;" y="320" x="366.0205078125" id="rel4" class="er relationshipLabel">provides</text><rect height="13.75" width="76.58203125" y="461.3682556152344" x="167.24363708496094" class="er relationshipLabelBox"/><text style="text-anchor: middle; dominant-baseline: middle; font-size: 12px;" y="468.2432556152344" x="205.53465270996094" id="rel5" class="er relationshipLabel">conforms with</text><rect height="13.75" width="76.22456359863281" y="641.0698852539062" x="682.0097885131836" class="er relationshipLabelBox"/><text style="text-anchor: middle; dominant-baseline: middle; font-size: 12px;" y="647.9448852539062" x="720.1220703125" id="rel6" class="er relationshipLabel">can be part of</text><rect height="13.75" width="68.30728912353516" y="670.743896484375" x="346.6294364929199" class="er relationshipLabelBox"/><text style="text-anchor: middle; dominant-baseline: middle; font-size: 12px;" y="677.618896484375" x="380.7830810546875" id="rel7" class="er relationshipLabel">registered in</text><rect height="13.75" width="22.81900978088379" y="670.7439575195312" x="543.5366621017456" class="er relationshipLabelBox"/><text style="text-anchor: middle; dominant-baseline: middle; font-size: 12px;" y="677.6189575195312" x="554.9461669921875" id="rel8" class="er relationshipLabel">uses</text><rect height="13.75" width="68.25520324707031" y="488.125" x="331.89290618896484" class="er relationshipLabelBox"/><text style="text-anchor: middle; dominant-baseline: middle; font-size: 12px;" y="495" x="366.0205078125" id="rel9" class="er relationshipLabel">described by</text></svg>