<svg aria-roledescription="er" role="graphics-document document" viewBox="-97.77135467529297 0 689.699462890625 640" style="max-width: 689.699px; background-color: rgb(255, 255, 255);" xmlns:xlink="http://www.w3.org/1999/xlink" xmlns="http://www.w3.org/2000/svg" width="100%" id="mermaid-1695913238223"><style>#mermaid-1695913238223{font-family:"trebuchet ms",verdana,arial,sans-serif;font-size:16px;fill:#333;}#mermaid-1695913238223 .error-icon{fill:#552222;}#mermaid-1695913238223 .error-text{fill:#552222;stroke:#552222;}#mermaid-1695913238223 .edge-thickness-normal{stroke-width:2px;}#mermaid-1695913238223 .edge-thickness-thick{stroke-width:3.5px;}#mermaid-1695913238223 .edge-pattern-solid{stroke-dasharray:0;}#mermaid-1695913238223 .edge-pattern-dashed{stroke-dasharray:3;}#mermaid-1695913238223 .edge-pattern-dotted{stroke-dasharray:2;}#mermaid-1695913238223 .marker{fill:#333333;stroke:#333333;}#mermaid-1695913238223 .marker.cross{stroke:#333333;}#mermaid-1695913238223 svg{font-family:"trebuchet ms",verdana,arial,sans-serif;font-size:16px;}#mermaid-1695913238223 .entityBox{fill:#ECECFF;stroke:#9370DB;}#mermaid-1695913238223 .attributeBoxOdd{fill:#ffffff;stroke:#9370DB;}#mermaid-1695913238223 .attributeBoxEven{fill:#f2f2f2;stroke:#9370DB;}#mermaid-1695913238223 .relationshipLabelBox{fill:hsl(80, 100%, 96.2745098039%);opacity:0.7;background-color:hsl(80, 100%, 96.2745098039%);}#mermaid-1695913238223 .relationshipLabelBox rect{opacity:0.5;}#mermaid-1695913238223 .relationshipLine{stroke:#333333;}#mermaid-1695913238223 .entityTitleText{text-anchor:middle;font-size:18px;fill:#333;}#mermaid-1695913238223 #MD_PARENT_START{fill:#f5f5f5!important;stroke:#333333!important;stroke-width:1;}#mermaid-1695913238223 #MD_PARENT_END{fill:#f5f5f5!important;stroke:#333333!important;stroke-width:1;}#mermaid-1695913238223 :root{--mermaid-font-family:"trebuchet ms",verdana,arial,sans-serif;}</style><g/><defs><marker orient="auto" markerHeight="240" markerWidth="190" refY="7" refX="0" id="MD_PARENT_START"><path d="M 18,7 L9,13 L1,7 L9,1 Z"/></marker></defs><defs><marker orient="auto" markerHeight="28" markerWidth="20" refY="7" refX="19" id="MD_PARENT_END"><path d="M 18,7 L9,13 L1,7 L9,1 Z"/></marker></defs><defs><marker orient="auto" markerHeight="18" markerWidth="18" refY="9" refX="0" id="ONLY_ONE_START"><path d="M9,0 L9,18 M15,0 L15,18" fill="none" stroke="gray"/></marker></defs><defs><marker orient="auto" markerHeight="18" markerWidth="18" refY="9" refX="18" id="ONLY_ONE_END"><path d="M3,0 L3,18 M9,0 L9,18" fill="none" stroke="gray"/></marker></defs><defs><marker orient="auto" markerHeight="18" markerWidth="30" refY="9" refX="0" id="ZERO_OR_ONE_START"><circle r="6" cy="9" cx="21" fill="white" stroke="gray"/><path d="M9,0 L9,18" fill="none" stroke="gray"/></marker></defs><defs><marker orient="auto" markerHeight="18" markerWidth="30" refY="9" refX="30" id="ZERO_OR_ONE_END"><circle r="6" cy="9" cx="9" fill="white" stroke="gray"/><path d="M21,0 L21,18" fill="none" stroke="gray"/></marker></defs><defs><marker orient="auto" markerHeight="36" markerWidth="45" refY="18" refX="18" id="ONE_OR_MORE_START"><path d="M0,18 Q 18,0 36,18 Q 18,36 0,18 M42,9 L42,27" fill="none" stroke="gray"/></marker></defs><defs><marker orient="auto" markerHeight="36" markerWidth="45" refY="18" refX="27" id="ONE_OR_MORE_END"><path d="M3,9 L3,27 M9,18 Q27,0 45,18 Q27,36 9,18" fill="none" stroke="gray"/></marker></defs><defs><marker orient="auto" markerHeight="36" markerWidth="57" refY="18" refX="18" id="ZERO_OR_MORE_START"><circle r="6" cy="18" cx="48" fill="white" stroke="gray"/><path d="M0,18 Q18,0 36,18 Q18,36 0,18" fill="none" stroke="gray"/></marker></defs><defs><marker orient="auto" markerHeight="36" markerWidth="57" refY="18" refX="39" id="ZERO_OR_MORE_END"><circle r="6" cy="18" cx="9" fill="white" stroke="gray"/><path d="M21,18 Q39,0 57,18 Q39,36 21,18" fill="none" stroke="gray"/></marker></defs><path style="stroke: gray; fill: none;" marker-start="url(#ONLY_ONE_START)" marker-end="url(#ONE_OR_MORE_END)" d="M288.60498046875,87.18056904798436L311.3721523284912,96.8171408733203C334.1393241882324,106.45371269865625,379.67366790771484,125.72685634932812,402.44083976745605,143.6967615079974C425.20801162719727,161.66666666666666,425.20801162719727,178.33333333333334,425.20801162719727,186.66666666666666L425.20801162719727,195" class="er relationshipLine"/><path style="stroke: gray; fill: none;" marker-start="url(#ONLY_ONE_START)" marker-end="url(#ONLY_ONE_END)" d="M351.2203576224191,270L334.7786567324684,278.3333333333333C318.3369558425177,286.6666666666667,285.45355406261626,303.3333333333333,250.22759210495724,321.1873062857249C215.0016301472982,339.04127923811643,177.4331080118815,358.08255847623286,158.6488469441732,367.603198095291L139.86458587646484,377.1238377143493" class="er relationshipLine"/><path style="stroke: gray; fill: none;" marker-start="url(#ONE_OR_MORE_START)" marker-end="url(#ONLY_ONE_END)" d="M22.466054098946707,370L9.695778801327657,361.6666666666667C-3.0744964962913883,353.3333333333333,-28.615047091529487,336.6666666666667,-41.385322389148534,313.75C-54.15559768676758,290.8333333333333,-54.15559768676758,261.6666666666667,-54.15559768676758,232.5C-54.15559768676758,203.33333333333334,-54.15559768676758,174.16666666666666,-20.403074264526367,148.75084731489486C13.349449157714844,123.33502796312303,80.85449600219727,101.67005592624604,114.60701942443848,90.83756990780755L148.3595428466797,80.00508388936905" class="er relationshipLine"/><path style="stroke: gray; fill: none;" marker-start="url(#ONLY_ONE_START)" marker-end="url(#ONE_OR_MORE_END)" d="M468.0651544843401,270L477.5889640081496,278.3333333333333C487.1127735319592,286.6666666666667,506.16039257957823,303.3333333333333,510.922297341483,320C515.6842021033877,336.6666666666667,506.16039257957823,353.3333333333333,501.39848781767347,361.6666666666667L496.6365830557687,370" class="er relationshipLine"/><path style="stroke: gray; fill: none;" marker-start="url(#ONE_OR_MORE_START)" marker-end="url(#ONE_OR_MORE_END)" d="M137.07515008108956,270L127.55134055728003,278.3333333333333C118.02753103347051,286.6666666666667,98.97991198585146,303.3333333333333,89.45610246204194,320C79.93229293823242,336.6666666666667,79.93229293823242,353.3333333333333,79.93229293823242,361.6666666666667L79.93229293823242,370" class="er relationshipLine"/><path style="stroke: gray; fill: none;" marker-start="url(#ONLY_ONE_START)" marker-end="url(#ONLY_ONE_END)" d="M475.20801162719727,445L475.20801162719727,453.3333333333333C475.20801162719727,461.6666666666667,475.20801162719727,478.3333333333333,475.20801162719727,495C475.20801162719727,511.6666666666667,475.20801162719727,528.3333333333334,475.20801162719727,536.6666666666666L475.20801162719727,545" class="er relationshipLine"/><path style="stroke: gray; fill: none;" marker-start="url(#ONE_OR_MORE_START)" marker-end="url(#ONE_OR_MORE_END)" d="M248.10807418823242,267.0543027585372L265.5184205373128,275.8785856321143C282.92876688639325,284.70286850569147,317.749459584554,302.35143425284576,347.2116451263428,319.77449677732864C376.67383066813153,337.1975593018115,400.77750905354816,354.3951186036231,412.82934824625653,362.9938982545288L424.88118743896484,371.5926779054346" class="er relationshipLine"/><g transform="translate(148.3595428466797,20 )" id="entity-Federationsoperatr-be9672d6-104a-5bc1-91fd-da0742f7e0ba"><rect height="75" width="140.24544525146484" y="0" x="0" class="er entityBox"/><text style="dominant-baseline: middle; text-anchor: middle; font-size: 12px;" transform="translate(70.12272262573242,37.5)" y="0" x="0" id="text-entity-Federationsoperatr-be9672d6-104a-5bc1-91fd-da0742f7e0ba" class="er entityLabel">Federationsoperatör</text></g><g transform="translate(348.1080741882324,195 )" id="entity-Informationsfederation-a1942025-6b63-53e1-ac5a-9ce00e9721ed"><rect height="75" width="154.1998748779297" y="0" x="0" class="er entityBox"/><text style="dominant-baseline: middle; text-anchor: middle; font-size: 12px;" transform="translate(77.09993743896484,37.5)" y="0" x="0" id="text-entity-Informationsfederation-a1942025-6b63-53e1-ac5a-9ce00e9721ed" class="er entityLabel">Informationsfederation</text></g><g transform="translate(20,370 )" id="entity-Federationsavtal-5cc42205-c8e1-5f25-bd8e-07b1ba31d5ca"><rect height="75" width="119.86458587646484" y="0" x="0" class="er entityBox"/><text style="dominant-baseline: middle; text-anchor: middle; font-size: 12px;" transform="translate(59.93229293823242,37.5)" y="0" x="0" id="text-entity-Federationsavtal-5cc42205-c8e1-5f25-bd8e-07b1ba31d5ca" class="er entityLabel">Federationsavtal</text></g><g transform="translate(424.88118743896484,370 )" id="entity-Digitaltjnst-26f27afb-9ad2-5cfc-b03e-e80b24a2ebfd"><rect height="75" width="100.65364837646484" y="0" x="0" class="er entityBox"/><text style="dominant-baseline: middle; text-anchor: middle; font-size: 12px;" transform="translate(50.32682418823242,37.5)" y="0" x="0" id="text-entity-Digitaltjnst-26f27afb-9ad2-5cfc-b03e-e80b24a2ebfd" class="er entityLabel">Digital tjänst</text></g><g transform="translate(111.75651168823242,195 )" id="entity-Federationsmedlem-c2857d37-2044-521b-a74c-7e64026be0d9"><rect height="75" width="136.3515625" y="0" x="0" class="er entityBox"/><text style="dominant-baseline: middle; text-anchor: middle; font-size: 12px;" transform="translate(68.17578125,37.5)" y="0" x="0" id="text-entity-Federationsmedlem-c2857d37-2044-521b-a74c-7e64026be0d9" class="er entityLabel">Federationsmedlem</text></g><g transform="translate(378.4879570007324,545 )" id="entity-Interoperabilitetsspecifikation-f7a5bdce-9d54-5408-8d12-4a2a36f48b41"><rect height="75" width="193.4401092529297" y="0" x="0" class="er entityBox"/><text style="dominant-baseline: middle; text-anchor: middle; font-size: 12px;" transform="translate(96.72005462646484,37.5)" y="0" x="0" id="text-entity-Interoperabilitetsspecifikation-f7a5bdce-9d54-5408-8d12-4a2a36f48b41" class="er entityLabel">Interoperabilitetsspecifikation</text></g><rect height="14" width="47.022789001464844" y="118.5482177734375" x="349.9805488586426" class="er relationshipLabelBox"/><text style="text-anchor: middle; dominant-baseline: middle; font-size: 12px;" y="125.5482177734375" x="373.491943359375" id="rel276" class="er relationshipLabel">hanterar</text><rect height="14" width="59.72916793823242" y="316.5619201660156" x="215.6778964996338" class="er relationshipLabelBox"/><text style="text-anchor: middle; dominant-baseline: middle; font-size: 12px;" y="323.5619201660156" x="245.54248046875" id="rel277" class="er relationshipLabel">regleras av</text><rect height="14" width="63.13346481323242" y="172.34410095214844" x="-77.77135276794434" class="er relationshipLabelBox"/><text style="text-anchor: middle; dominant-baseline: middle; font-size: 12px;" y="179.34410095214844" x="-46.204620361328125" id="rel278" class="er relationshipLabel">hanteras av</text><rect height="14" width="48.294273376464844" y="306.8829040527344" x="484.42216873168945" class="er relationshipLabelBox"/><text style="text-anchor: middle; dominant-baseline: middle; font-size: 12px;" y="313.8829040527344" x="508.5693054199219" id="rel279" class="er relationshipLabel">omfattar</text><rect height="14" width="53.04948043823242" y="305.5645446777344" x="67.76934242248535" class="er relationshipLabelBox"/><text style="text-anchor: middle; dominant-baseline: middle; font-size: 12px;" y="312.5645446777344" x="94.29408264160156" id="rel280" class="er relationshipLabel">skriver på</text><rect height="14" width="59.54752731323242" y="488" x="445.4342441558838" class="er relationshipLabelBox"/><text style="text-anchor: middle; dominant-baseline: middle; font-size: 12px;" y="495" x="475.2080078125" id="rel281" class="er relationshipLabel">beskrivs av</text><rect height="14" width="74.81120300292969" y="308.0234069824219" x="301.65369415283203" class="er relationshipLabelBox"/><text style="text-anchor: middle; dominant-baseline: middle; font-size: 12px;" y="315.0234069824219" x="339.0592956542969" id="rel282" class="er relationshipLabel">samverkar via</text></svg>