<svg aria-roledescription="er" role="graphics-document document" viewBox="-24.558198928833008 0 464.89007568359375 640" style="max-width: 464.89px; background-color: rgb(255, 255, 255);" xmlns:xlink="http://www.w3.org/1999/xlink" xmlns="http://www.w3.org/2000/svg" width="100%" id="mermaid-1695831689313"><style>#mermaid-1695831689313{font-family:"trebuchet ms",verdana,arial,sans-serif;font-size:16px;fill:#333;}#mermaid-1695831689313 .error-icon{fill:#552222;}#mermaid-1695831689313 .error-text{fill:#552222;stroke:#552222;}#mermaid-1695831689313 .edge-thickness-normal{stroke-width:2px;}#mermaid-1695831689313 .edge-thickness-thick{stroke-width:3.5px;}#mermaid-1695831689313 .edge-pattern-solid{stroke-dasharray:0;}#mermaid-1695831689313 .edge-pattern-dashed{stroke-dasharray:3;}#mermaid-1695831689313 .edge-pattern-dotted{stroke-dasharray:2;}#mermaid-1695831689313 .marker{fill:#333333;stroke:#333333;}#mermaid-1695831689313 .marker.cross{stroke:#333333;}#mermaid-1695831689313 svg{font-family:"trebuchet ms",verdana,arial,sans-serif;font-size:16px;}#mermaid-1695831689313 .entityBox{fill:#ECECFF;stroke:#9370DB;}#mermaid-1695831689313 .attributeBoxOdd{fill:#ffffff;stroke:#9370DB;}#mermaid-1695831689313 .attributeBoxEven{fill:#f2f2f2;stroke:#9370DB;}#mermaid-1695831689313 .relationshipLabelBox{fill:hsl(80, 100%, 96.2745098039%);opacity:0.7;background-color:hsl(80, 100%, 96.2745098039%);}#mermaid-1695831689313 .relationshipLabelBox rect{opacity:0.5;}#mermaid-1695831689313 .relationshipLine{stroke:#333333;}#mermaid-1695831689313 .entityTitleText{text-anchor:middle;font-size:18px;fill:#333;}#mermaid-1695831689313 #MD_PARENT_START{fill:#f5f5f5!important;stroke:#333333!important;stroke-width:1;}#mermaid-1695831689313 #MD_PARENT_END{fill:#f5f5f5!important;stroke:#333333!important;stroke-width:1;}#mermaid-1695831689313 :root{--mermaid-font-family:"trebuchet ms",verdana,arial,sans-serif;}</style><g/><defs><marker orient="auto" markerHeight="240" markerWidth="190" refY="7" refX="0" id="MD_PARENT_START"><path d="M 18,7 L9,13 L1,7 L9,1 Z"/></marker></defs><defs><marker orient="auto" markerHeight="28" markerWidth="20" refY="7" refX="19" id="MD_PARENT_END"><path d="M 18,7 L9,13 L1,7 L9,1 Z"/></marker></defs><defs><marker orient="auto" markerHeight="18" markerWidth="18" refY="9" refX="0" id="ONLY_ONE_START"><path d="M9,0 L9,18 M15,0 L15,18" fill="none" stroke="gray"/></marker></defs><defs><marker orient="auto" markerHeight="18" markerWidth="18" refY="9" refX="18" id="ONLY_ONE_END"><path d="M3,0 L3,18 M9,0 L9,18" fill="none" stroke="gray"/></marker></defs><defs><marker orient="auto" markerHeight="18" markerWidth="30" refY="9" refX="0" id="ZERO_OR_ONE_START"><circle r="6" cy="9" cx="21" fill="white" stroke="gray"/><path d="M9,0 L9,18" fill="none" stroke="gray"/></marker></defs><defs><marker orient="auto" markerHeight="18" markerWidth="30" refY="9" refX="30" id="ZERO_OR_ONE_END"><circle r="6" cy="9" cx="9" fill="white" stroke="gray"/><path d="M21,0 L21,18" fill="none" stroke="gray"/></marker></defs><defs><marker orient="auto" markerHeight="36" markerWidth="45" refY="18" refX="18" id="ONE_OR_MORE_START"><path d="M0,18 Q 18,0 36,18 Q 18,36 0,18 M42,9 L42,27" fill="none" stroke="gray"/></marker></defs><defs><marker orient="auto" markerHeight="36" markerWidth="45" refY="18" refX="27" id="ONE_OR_MORE_END"><path d="M3,9 L3,27 M9,18 Q27,0 45,18 Q27,36 9,18" fill="none" stroke="gray"/></marker></defs><defs><marker orient="auto" markerHeight="36" markerWidth="57" refY="18" refX="18" id="ZERO_OR_MORE_START"><circle r="6" cy="18" cx="48" fill="white" stroke="gray"/><path d="M0,18 Q18,0 36,18 Q18,36 0,18" fill="none" stroke="gray"/></marker></defs><defs><marker orient="auto" markerHeight="36" markerWidth="57" refY="18" refX="39" id="ZERO_OR_MORE_END"><circle r="6" cy="18" cx="9" fill="white" stroke="gray"/><path d="M21,18 Q39,0 57,18 Q39,36 21,18" fill="none" stroke="gray"/></marker></defs><path style="stroke: gray; fill: none;" marker-start="url(#ONLY_ONE_START)" marker-end="url(#ONE_OR_MORE_END)" d="M223.01183809552873,95L231.44516844976513,103.33333333333333C239.87849880400157,111.66666666666667,256.7451595124744,128.33333333333334,265.17848986671083,145C273.61182022094727,161.66666666666666,273.61182022094727,178.33333333333334,273.61182022094727,186.66666666666666L273.61182022094727,195" class="er relationshipLine"/><path style="stroke: gray; fill: none;" marker-start="url(#ONLY_ONE_START)" marker-end="url(#ONLY_ONE_END)" d="M228.5562951224191,270L218.54395621163508,278.3333333333333C208.53161730085102,286.6666666666667,188.50693947928292,303.3333333333333,170.06127021426246,320C151.615600949242,336.6666666666667,134.74894024076914,353.3333333333333,126.31560988653273,361.6666666666667L117.88227953229631,370" class="er relationshipLine"/><path style="stroke: gray; fill: none;" marker-start="url(#ONE_OR_MORE_START)" marker-end="url(#ONLY_ONE_END)" d="M58.50372150966099,370L53.741816747756225,361.6666666666667C48.979911985851466,353.3333333333333,39.45610246204195,336.6666666666667,34.69419770013718,313.75C29.932292938232422,290.8333333333333,29.932292938232422,261.6666666666667,29.932292938232422,232.5C29.932292938232422,203.33333333333334,29.932292938232422,174.16666666666666,44.706536610921226,151.25C59.480780283610024,128.33333333333334,89.02926762898763,111.66666666666667,103.80351130167644,103.33333333333333L118.57775497436523,95" class="er relationshipLine"/><path style="stroke: gray; fill: none;" marker-start="url(#ONLY_ONE_START)" marker-end="url(#ONE_OR_MORE_END)" d="M295.0403916495187,270L299.80229641142347,278.3333333333333C304.56420117332823,286.6666666666667,314.08801069713775,303.3333333333333,318.8499154590425,320C323.61182022094727,336.6666666666667,323.61182022094727,353.3333333333333,323.61182022094727,361.6666666666667L323.61182022094727,370" class="er relationshipLine"/><path style="stroke: gray; fill: none;" marker-start="url(#ONLY_ONE_START)" marker-end="url(#ONLY_ONE_END)" d="M323.61182022094727,445L323.61182022094727,453.3333333333333C323.61182022094727,461.6666666666667,323.61182022094727,478.3333333333333,323.61182022094727,495C323.61182022094727,511.6666666666667,323.61182022094727,528.3333333333334,323.61182022094727,536.6666666666666L323.61182022094727,545" class="er relationshipLine"/><g transform="translate(114.93913269042969,20 )" id="entity-Federationsoperatr-be9672d6-104a-5bc1-91fd-da0742f7e0ba"><rect height="75" width="140.24544525146484" y="0" x="0" class="er entityBox"/><text style="dominant-baseline: middle; text-anchor: middle; font-size: 12px;" transform="translate(70.12272262573242,37.5)" y="0" x="0" id="text-entity-Federationsoperatr-be9672d6-104a-5bc1-91fd-da0742f7e0ba" class="er entityLabel">Federationsoperatör</text></g><g transform="translate(196.51188278198242,195 )" id="entity-Informationsfederation-a1942025-6b63-53e1-ac5a-9ce00e9721ed"><rect height="75" width="154.1998748779297" y="0" x="0" class="er entityBox"/><text style="dominant-baseline: middle; text-anchor: middle; font-size: 12px;" transform="translate(77.09993743896484,37.5)" y="0" x="0" id="text-entity-Informationsfederation-a1942025-6b63-53e1-ac5a-9ce00e9721ed" class="er entityLabel">Informationsfederation</text></g><g transform="translate(20,370 )" id="entity-Federationsavtal-5cc42205-c8e1-5f25-bd8e-07b1ba31d5ca"><rect height="75" width="119.86458587646484" y="0" x="0" class="er entityBox"/><text style="dominant-baseline: middle; text-anchor: middle; font-size: 12px;" transform="translate(59.93229293823242,37.5)" y="0" x="0" id="text-entity-Federationsavtal-5cc42205-c8e1-5f25-bd8e-07b1ba31d5ca" class="er entityLabel">Federationsavtal</text></g><g transform="translate(273.28499603271484,370 )" id="entity-Digitaltjnst-26f27afb-9ad2-5cfc-b03e-e80b24a2ebfd"><rect height="75" width="100.65364837646484" y="0" x="0" class="er entityBox"/><text style="dominant-baseline: middle; text-anchor: middle; font-size: 12px;" transform="translate(50.32682418823242,37.5)" y="0" x="0" id="text-entity-Digitaltjnst-26f27afb-9ad2-5cfc-b03e-e80b24a2ebfd" class="er entityLabel">Digital tjänst</text></g><g transform="translate(226.89176559448242,545 )" id="entity-Interoperabilitetsspecifikation-f7a5bdce-9d54-5408-8d12-4a2a36f48b41"><rect height="75" width="193.4401092529297" y="0" x="0" class="er entityBox"/><text style="dominant-baseline: middle; text-anchor: middle; font-size: 12px;" transform="translate(96.72005462646484,37.5)" y="0" x="0" id="text-entity-Interoperabilitetsspecifikation-f7a5bdce-9d54-5408-8d12-4a2a36f48b41" class="er entityLabel">Interoperabilitetsspecifikation</text></g><rect height="14" width="47.022789001464844" y="131.72743225097656" x="238.11796951293945" class="er relationshipLabelBox"/><text style="text-anchor: middle; dominant-baseline: middle; font-size: 12px;" y="138.72743225097656" x="261.6293640136719" id="rel75" class="er relationshipLabel">hanterar</text><rect height="14" width="59.72916793823242" y="311.432373046875" x="141.9362277984619" class="er relationshipLabelBox"/><text style="text-anchor: middle; dominant-baseline: middle; font-size: 12px;" y="318.432373046875" x="171.80081176757812" id="rel76" class="er relationshipLabel">regleras av</text><rect height="14" width="69.21224212646484" y="208.18289184570312" x="-4.558198928833008" class="er relationshipLabelBox"/><text style="text-anchor: middle; dominant-baseline: middle; font-size: 12px;" y="215.18289184570312" x="30.047922134399414" id="rel77" class="er relationshipLabel">är avtalspart</text><rect height="14" width="48.294273376464844" y="310.55279541015625" x="293.9699897766113" class="er relationshipLabelBox"/><text style="text-anchor: middle; dominant-baseline: middle; font-size: 12px;" y="317.55279541015625" x="318.11712646484375" id="rel78" class="er relationshipLabel">omfattar</text><rect height="14" width="59.54752731323242" y="488" x="293.8380527496338" class="er relationshipLabelBox"/><text style="text-anchor: middle; dominant-baseline: middle; font-size: 12px;" y="495" x="323.61181640625" id="rel79" class="er relationshipLabel">beskrivs av</text></svg>